SplineFontDB: 3.0
FontName: Mittaphap-Book
FullName: Mittaphap Book
FamilyName: Mittaphap Book
Weight: Book
Copyright: Copyright (c) 2010 by . All rights reserved.
Version: 001.001
ItalicAngle: 0
UnderlinePosition: -91
UnderlineWidth: 23
Ascent: 800
Descent: 200
sfntRevision: 0x00010000
LayerCount: 2
Layer: 0 0 "Back"  1
Layer: 1 0 "Fore"  0
XUID: [1021 332 469972825 1525062]
FSType: 0
OS2Version: 2
OS2_WeightWidthSlopeOnly: 0
OS2_UseTypoMetrics: 1
CreationTime: 1282831370
ModificationTime: 1363861833
PfmFamily: 17
TTFWeight: 400
TTFWidth: 5
LineGap: 17
VLineGap: 0
Panose: 2 0 5 3 0 0 0 0 0 0
OS2TypoAscent: 1200
OS2TypoAOffset: 0
OS2TypoDescent: -439
OS2TypoDOffset: 0
OS2TypoLinegap: 17
OS2WinAscent: 1200
OS2WinAOffset: 0
OS2WinDescent: 439
OS2WinDOffset: 0
HheadAscent: 1200
HheadAOffset: 0
HheadDescent: -439
HheadDOffset: 0
OS2SubXSize: 650
OS2SubYSize: 699
OS2SubXOff: 0
OS2SubYOff: 140
OS2SupXSize: 650
OS2SupYSize: 699
OS2SupXOff: 0
OS2SupYOff: 479
OS2StrikeYSize: 50
OS2StrikeYPos: 250
OS2Vendor: 'PfEd'
OS2CodePages: 00010000.00000000
OS2UnicodeRanges: 8300002f.00000002.00000000.00000000
Lookup: 2 0 0 "ccmpGlyphCompositionDecompositi"  {"ccmpGlyphCompositionDecompositi subtable"  } ['ccmp' ('lao ' <'dflt' > ) ]
Lookup: 258 0 0 "kernHorizontalKerninginLatinloo"  {"kernHorizontalKerninginLatinloo subtable"  } ['kern' ('latn' <'dflt' > 'DFLT' <'dflt' > ) ]
Lookup: 260 0 0 "cabove"  {"cabove subtable"  } ['mark' ('latn' <'dflt' > 'lao ' <'dflt' > 'DFLT' <'dflt' > ) ]
Lookup: 260 0 0 "udia"  {"udia subtable"  } ['mark' ('lao ' <'dflt' > 'DFLT' <'dflt' > ) ]
Lookup: 260 0 0 "cbelowldia"  {"cbelowldia subtable"  } ['mark' ('lao ' <'dflt' > 'DFLT' <'dflt' > ) ]
Lookup: 262 0 0 "tone"  {"tone subtable"  } ['mkmk' ('lao ' <'dflt' > 'DFLT' <'dflt' > ) ]
Lookup: 262 0 0 "lstack"  {"lstack subtable"  } ['mkmk' ('lao ' <'dflt' > 'DFLT' <'dflt' > ) ]
MarkAttachClasses: 1
DEI: 91125

StartChar: .notdef
Encoding: 0 -1 0
Width: 565
GlyphClass: 1
Flags: W
HStem: -2 51<104 463> 399 50<104 463>
VStem: 54 50<49 399> 463 48<49 399>
LayerCount: 2
Fore
SplineSet
463 399 m 1
 104 399 l 1
 104 49 l 1
 463 49 l 1
 463 399 l 1
54 449 m 1
 511 449 l 1
 511 -2 l 1
 54 -2 l 1
 54 449 l 1
EndSplineSet
EndChar

StartChar: uni0E82
Encoding: 97 3714 1
Width: 613
GlyphClass: 2
Flags: W
HStem: -14 21G<510.5 524> -2 67<145.894 265.355> 61 71<333.666 470.967> 293 59<130.301 194.874> 421 55<173 196.324> 494 65<175.063 439.796>
VStem: 50 89<70.9113 151.699> 50 74<356.623 413.151> 198 66<353.778 419.183> 475 90<353.638 462.002>
AnchorPoint: "ldia" 440 0 basechar 0
AnchorPoint: "cbelow" 440 0 basechar 0
AnchorPoint: "udia" 300 600 basechar 0
AnchorPoint: "cabove" 340 600 basechar 0
LayerCount: 2
Fore
SplineSet
494 5 m 0xbec0
 477 35 461 61 418 61 c 0xbec0
 350 61 269 -2 182 -2 c 0
 104 -2 50 39 50 117 c 0x5ec0
 50 206 153 239 275 278 c 1
 308 288 l 1
 409 320 475 341 475 405 c 0
 475 476 422 494 311 494 c 0
 252 494 205 489 173 476 c 1
 225 476 264 441 264 386 c 0
 264 339 233 293 165 293 c 0
 95 293 50 341 50 408 c 0x5dc0
 50 519 180 559 309 559 c 0
 478 559 565 512 565 402 c 0
 565 307 466 259 355 224 c 0
 264 195 139 169 139 118 c 0
 139 95 143 65 189 65 c 0x5ec0
 249 65 333 132 415 132 c 0
 480 132 528 109 561 38 c 0
 565 31 567 27 567 21 c 0
 567 9 533 -14 515 -14 c 0
 506 -14 501 -9 494 5 c 0xbec0
124 410 m 1x1dc0
 124 367 138 352 165 352 c 0
 188 352 198 371 198 387 c 0
 198 411 181 421 166 421 c 0
 153 421 137 416 124 410 c 1x1dc0
EndSplineSet
EndChar

StartChar: uni0E84
Encoding: 98 3716 2
Width: 596
GlyphClass: 2
Flags: W
HStem: 0 63<137.242 199.508> 121 62<134 168.483> 130 60<134.564 199.432> 494 65<174.242 412.773>
VStem: 50 84<65.2226 128.471 183 222.385 371.946 458.87> 202 68<65.003 127.676> 460 88<1.61368 449.626>
AnchorPoint: "ldia" 440 0 basechar 0
AnchorPoint: "cbelow" 440 0 basechar 0
AnchorPoint: "udia" 300 600 basechar 0
AnchorPoint: "cabove" 340 600 basechar 0
LayerCount: 2
Fore
SplineSet
134 121 m 1xde
 134 96 l 2
 134 80 145 63 169 63 c 0
 185 63 202 73 202 95 c 0
 202 120 182 130 169 130 c 0xbe
 158 130 145 126 134 121 c 1xde
50 133 m 0
 50 229 99 278 175 303 c 1
 112 303 50 343 50 413 c 0
 50 531 167 559 310 559 c 0
 478 559 548 498 548 337 c 6
 548 34 l 6
 548 0 533 0 505 0 c 4
 480 0 460 1 460 34 c 6
 460 376 l 6
 460 443 431 494 309 494 c 0
 181 494 138 468 138 415 c 0
 138 327 254 376 254 307 c 0
 254 240 134 253 134 183 c 1xde
 147 187 161 190 175 190 c 0
 236 190 270 140 270 92 c 0
 270 37 225 0 172 0 c 0
 86 0 50 56 50 133 c 0
EndSplineSet
EndChar

StartChar: uni0E87
Encoding: 99 3719 3
Width: 443
GlyphClass: 2
Flags: W
HStem: -209 76<117.539 277.654> -201 68<117.539 144> 349 61<120.653 181.493>
VStem: 49 68<413.135 483.129> 182 67<411.245 490.26> 307 88<-101.692 471.884>
AnchorPoint: "ldia" 260 -200 basechar 0
AnchorPoint: "cbelow" 290 -180 basechar 0
AnchorPoint: "udia" 200 600 basechar 0
AnchorPoint: "cabove" 240 600 basechar 0
LayerCount: 2
Back
SplineSet
395 337 m 6
 395 34 l 6
 395 0 380 0 352 0 c 4
 327 0 307 1 307 34 c 6
 307 376 l 6
EndSplineSet
Fore
SplineSet
160 491 m 1x3c
 128 484 117 466 117 448 c 0
 117 425 131 410 151 410 c 0
 172 410 182 421 182 435 c 0
 182 448 178 470 160 491 c 1x3c
143 -201 m 0x7c
 126 -198 115 -196 115 -173 c 0
 115 -150 125 -133 141 -133 c 2
 144 -133 l 1
 161 -133 186 -139 207 -139 c 0
 292 -139 307 -77 307 0 c 2
 307 406 l 2
 307 455 294 486 232 493 c 1
 241 480 249 462 249 441 c 0
 249 385 205 349 153 349 c 0
 94 349 49 383 49 447 c 0
 49 516 114 559 214 559 c 0
 341 559 395 494 395 367 c 2
 395 26 l 2
 395 -163 315 -209 207 -209 c 0xbc
 188 -209 156 -204 143 -201 c 0x7c
EndSplineSet
EndChar

StartChar: uni0E88
Encoding: 100 3720 4
Width: 616
GlyphClass: 2
Flags: W
HStem: 0 64<385.539 462.818> 182 60<255.21 310> 319 57<254.083 316.728> 494 63<186.732 420.207>
VStem: 49 82<329.782 444.156> 183 68<245.711 316.038> 301 79<67.7585 221.768> 320 67<242.611 314.356> 480 88<77.6554 431.356>
AnchorPoint: "ldia" 440 0 basechar 0
AnchorPoint: "cbelow" 440 0 basechar 0
AnchorPoint: "udia" 300 600 basechar 0
AnchorPoint: "cabove" 340 600 basechar 0
LayerCount: 2
Back
SplineSet
568 358 m 6
 568 55 l 6
 568 21 553 21 525 21 c 4
 500 21 480 22 480 55 c 6
 480 397 l 6
EndSplineSet
Fore
SplineSet
320 247 m 1xfd80
 320 258 320 270 320 281 c 0
 320 304 303 319 285 319 c 0
 267 319 251 306 251 282 c 0
 251 265 260 242 287 242 c 0
 298 242 310 244 320 247 c 1xfd80
289 376 m 0
 371 376 387 326 387 262 c 0xfd80
 387 219 380 171 380 128 c 0
 380 82 388 64 422 64 c 0
 463 64 480 92 480 182 c 2
 480 336 l 2
 480 462 417 494 314 494 c 0
 180 494 131 458 131 365 c 0
 131 335 119 328 89 328 c 0
 61 328 49 335 49 363 c 0
 49 510 151 557 315 557 c 0
 442 557 568 532 568 300 c 2
 568 223 l 2
 568 43 514 0 420 0 c 0
 350 0 301 41 301 103 c 0xfe80
 301 134 305 154 310 185 c 1
 303 183 295 182 287 182 c 0
 229 182 183 215 183 280 c 0
 183 333 223 376 289 376 c 0
EndSplineSet
EndChar

StartChar: uni0E8A
Encoding: 101 3722 5
Width: 616
GlyphClass: 2
Flags: W
HStem: -177 21G<502.5 523> -2 67<145.894 255.652> 78 72<355.686 455.819> 293 59<130.301 194.874> 421 55<173 196.324> 494 65<175.063 439.796>
VStem: 50 89<70.9113 150.993> 50 74<356.623 413.151> 198 66<353.984 419.183> 463 83<-148.559 72.7842> 475 90<352.684 462.002>
AnchorPoint: "ldia" 340 0 basechar 0
AnchorPoint: "cbelow" 390 0 basechar 0
AnchorPoint: "udia" 300 600 basechar 0
AnchorPoint: "cabove" 340 600 basechar 0
LayerCount: 2
Fore
SplineSet
189 65 m 0xfea0
 239 65 360 150 439 150 c 0
 524 150 546 87 546 16 c 0
 546 -42 567 -99 567 -151 c 0
 567 -164 538 -177 508 -177 c 0
 497 -177 490 -172 485 -155 c 0
 473 -110 463 -50 463 8 c 0
 463 65 452 78 421 78 c 0
 374 78 270 -2 182 -2 c 0
 104 -2 50 39 50 117 c 0xfec0
 50 202 144 236 263 274 c 0
 387 314 475 331 475 405 c 0
 475 476 422 494 311 494 c 0
 252 494 205 489 173 476 c 1
 225 476 264 441 264 386 c 0
 264 340 233 293 165 293 c 0
 95 293 50 341 50 408 c 0xfda0
 50 519 180 559 309 559 c 0
 478 559 565 512 565 402 c 0
 565 307 466 259 355 224 c 0
 264 195 139 169 139 118 c 0
 139 95 143 65 189 65 c 0xfea0
124 410 m 1xfd80
 124 367 138 352 165 352 c 0
 188 352 198 371 198 387 c 0
 198 411 181 421 166 421 c 0
 153 421 137 416 124 410 c 1xfd80
EndSplineSet
EndChar

StartChar: uni0E8D
Encoding: 102 3725 6
Width: 569
GlyphClass: 2
Flags: W
HStem: 0 64<172.419 412.179> 369 60<134.564 199.432> 376 62<134 168.483> 496 63<136.035 199.969>
VStem: 50 84<100.439 186.581 336.615 376 430.529 493.777> 202 68<431.324 493.997> 460 88<109.386 557.365>
AnchorPoint: "ldia" 440 0 basechar 0
AnchorPoint: "cbelow" 440 0 basechar 0
AnchorPoint: "udia" 300 600 basechar 0
AnchorPoint: "cabove" 340 600 basechar 0
LayerCount: 2
Back
SplineSet
548 337 m 6
 548 34 l 6
 548 0 533 0 505 0 c 4
 480 0 460 1 460 34 c 6
 460 376 l 6
EndSplineSet
Fore
SplineSet
134 438 m 1xbe
 145 433 158 429 169 429 c 0xde
 182 429 202 439 202 464 c 0
 202 486 185 496 169 496 c 0
 145 496 134 479 134 463 c 2
 134 438 l 1xbe
50 146 m 0
 50 216 112 256 175 256 c 1
 99 281 50 330 50 426 c 0
 50 503 87 559 173 559 c 0
 226 559 270 522 270 467 c 0
 270 419 236 369 175 369 c 0xde
 161 369 147 372 134 376 c 1xbe
 134 306 254 319 254 252 c 0
 254 183 138 232 138 144 c 0
 138 94 173 64 309 64 c 0
 438 64 460 124 460 181 c 2
 460 525 l 2
 460 557 479 559 504 559 c 0
 533 559 548 558 548 525 c 2
 548 179 l 2
 548 60 461 0 310 0 c 0
 172 0 50 27 50 145 c 0
 50 146 l 0
EndSplineSet
EndChar

StartChar: uni0E94
Encoding: 103 3732 7
Width: 649
GlyphClass: 2
Flags: W
HStem: 0 62<145.772 206.658> 129 61<142.563 206.122> 494 65<195.741 407.872>
VStem: 55 87<66.2673 127.407 184 440.031> 209 67<64.3944 127.053> 461 88<1.82627 440.875>
AnchorPoint: "ldia" 430 0 basechar 0
AnchorPoint: "cbelow" 430 0 basechar 0
AnchorPoint: "udia" 290 600 basechar 0
AnchorPoint: "cabove" 340 600 basechar 0
LayerCount: 2
Back
SplineSet
549 337 m 6
 549 34 l 6
 549 0 534 0 506 0 c 4
 481 0 461 1 461 34 c 6
 461 376 l 6
EndSplineSet
Fore
SplineSet
142 121 m 1
 142 93 l 2
 142 81 152 62 177 62 c 0
 193 62 209 72 209 94 c 0
 209 119 190 129 177 129 c 0
 166 129 154 125 142 121 c 1
461 34 m 2
 461 334 l 2
 461 452 424 494 302 494 c 0
 179 494 142 452 142 336 c 2
 142 184 l 1
 154 188 167 190 179 190 c 0
 239 190 276 144 276 92 c 0
 276 37 231 0 176 0 c 0
 67 0 55 85 55 174 c 2
 55 336 l 2
 55 500 131 559 302 559 c 0
 473 559 549 500 549 338 c 2
 549 34 l 2
 549 0 535 0 507 0 c 0
 482 0 461 1 461 34 c 2
EndSplineSet
EndChar

StartChar: uni0E95
Encoding: 104 3733 8
Width: 641
GlyphClass: 2
Flags: W
HStem: 0 62<138.902 201.114> 129 61<137.54 200.59> 494 65<156.818 255.562 387.557 485.808>
VStem: 49 88<66.2673 127.636 184 473.93> 203 67<64.2934 127.053> 277 89<335.773 464.49> 505 88<1.2998 475.702>
AnchorPoint: "ldia" 440 0 basechar 0
AnchorPoint: "cbelow" 460 0 basechar 0
AnchorPoint: "udia" 350 600 basechar 0
AnchorPoint: "cabove" 340 600 basechar 0
LayerCount: 2
Back
SplineSet
593 337 m 6
 593 34 l 6
 593 0 578 0 550 0 c 4
 525 0 505 1 505 34 c 6
 505 376 l 6
EndSplineSet
Fore
SplineSet
137 121 m 1
 137 93 l 2
 137 81 147 62 172 62 c 0
 187 62 203 72 203 94 c 0
 203 119 184 129 171 129 c 0
 160 129 148 125 137 121 c 1
593 328 m 2
 593 32 l 2
 593 0 577 0 548 0 c 0
 523 0 505 1 505 32 c 2
 505 374 l 2
 505 464 485 494 438 494 c 0
 389 494 366 468 366 366 c 0
 366 340 348 333 321 333 c 0
 295 333 277 338 277 366 c 0
 277 469 251 494 203 494 c 0
 143 494 137 434 137 372 c 2
 137 184 l 1
 149 188 162 190 174 190 c 0
 234 190 270 144 270 92 c 0
 270 37 226 0 171 0 c 0
 64 0 49 85 49 174 c 2
 49 346 l 2
 49 503 95 559 196 559 c 0
 253 559 302 539 320 465 c 1
 341 542 391 559 448 559 c 0
 544 559 593 508 593 328 c 2
EndSplineSet
EndChar

StartChar: uni0E96
Encoding: 105 3734 9
Width: 707
GlyphClass: 2
Flags: W
HStem: 0 62<258.839 321.029> 129 61<256.54 320.852> 375 57<95.489 168.321> 500 59<95.1897 162.85 369.989 503.952>
VStem: 31 62<435.04 497.161> 169 87<65.2052 127.636 184 382> 323 67<63.9934 126.582> 547 88<-70.2731 458.594>
AnchorPoint: "ldia" 440 0 basechar 0
AnchorPoint: "cbelow" 460 0 basechar 0
AnchorPoint: "udia" 350 600 basechar 0
AnchorPoint: "cabove" 440 600 basechar 0
LayerCount: 2
Fore
SplineSet
256 184 m 1
 268 188 281 190 293 190 c 0
 357 190 390 140 390 94 c 0
 390 38 347 0 290 0 c 0
 202 0 169 59 169 138 c 2
 169 382 l 1
 154 378 139 375 124 375 c 0
 60 375 31 410 31 469 c 0
 31 520 65 559 133 559 c 0
 193 559 231 536 247 489 c 1
 303 523 370 559 446 559 c 0
 551 559 635 505 635 375 c 2
 635 54 l 2
 635 -26 667 -89 667 -113 c 0
 667 -136 639 -145 613 -145 c 0
 593 -145 582 -138 578 -120 c 2
 578 -120 547 -28 547 50 c 2
 547 372 l 2
 547 429 534 494 444 494 c 0
 379 494 317 454 256 421 c 1
 256 184 l 1
256 121 m 1
 256 96 l 2
 256 82 264 62 291 62 c 0
 307 62 323 72 323 94 c 0
 323 121 302 129 290 129 c 0
 279 129 267 125 256 121 c 1
169 443 m 1
 169 472 163 500 129 500 c 0
 109 500 93 490 93 467 c 0
 93 449 99 432 131 432 c 0
 142 432 155 436 169 443 c 1
EndSplineSet
EndChar

StartChar: uni0E97
Encoding: 106 3735 10
Width: 675
GlyphClass: 2
Flags: W
HStem: 0 65<172.13 290.093> 369 61<98.6465 138.812> 499 60<97.4202 159.136 429.262 521.626>
VStem: 29 66<432.847 496.624> 61 88<87.481 265.561> 163 84<430.727 496.491> 314 89<90.7468 470.621> 550 89<2.00507 471.171>
AnchorPoint: "ldia" 520 0 basechar 0
AnchorPoint: "cbelow" 520 0 basechar 0
AnchorPoint: "udia" 350 600 basechar 0
AnchorPoint: "cabove" 440 600 basechar 0
LayerCount: 2
Fore
SplineSet
639 350 m 2xef
 639 34 l 2
 639 6 627 0 596 0 c 0
 568 0 550 3 550 34 c 2
 550 341 l 2
 550 423 548 494 477 494 c 0
 415 494 403 446 403 380 c 2
 403 202 l 2
 403 25 311 0 226 0 c 0
 112 0 61 61 61 174 c 0xef
 61 257 109 311 139 369 c 1
 135 368 131 369 127 369 c 0
 75 369 29 404 29 465 c 0xf7
 29 520 71 559 133 559 c 0
 196 559 247 514 247 450 c 0
 247 343 149 307 149 169 c 0
 149 99 171 65 232 65 c 0
 310 65 314 122 314 214 c 2
 314 376 l 2
 314 522 389 559 477 559 c 0
 591 559 639 504 639 350 c 2xef
163 435 m 1
 164 441 163 450 163 456 c 0
 163 486 147 499 129 499 c 0
 112 499 95 488 95 464 c 0xf7
 95 444 110 430 130 430 c 0
 140 430 152 431 163 435 c 1
EndSplineSet
EndChar

StartChar: uni0E99
Encoding: 107 3737 11
Width: 687
GlyphClass: 2
Flags: W
HStem: 0 64<53.5735 156.59 330.597 508.392> 369 61<130.426 195> 496 63<130.157 193.21>
VStem: 61 67<432.608 494.589> 195 88<112.808 375 430.577 493.741> 551 88<110.626 556.84>
AnchorPoint: "ldia" 500 0 basechar 0
AnchorPoint: "cbelow" 500 0 basechar 0
AnchorPoint: "udia" 350 600 basechar 0
AnchorPoint: "cabove" 440 600 basechar 0
LayerCount: 2
Fore
SplineSet
421 64 m 0
 512 64 551 95 551 213 c 2
 551 523 l 2
 551 556 570 559 595 559 c 0
 623 559 639 554 639 523 c 2
 639 211 l 2
 639 25 530 0 425 0 c 0
 351 0 266 22 241 91 c 1
 227 27 162 0 78 0 c 0
 64 0 53 4 53 31 c 0
 53 62 58 66 75 66 c 0
 179 66 195 108 195 231 c 2
 195 375 l 1
 183 371 170 369 157 369 c 0
 98 369 61 414 61 466 c 0
 61 520 105 559 161 559 c 0
 268 559 283 476 283 386 c 2
 283 214 l 2
 283 94 332 64 421 64 c 0
195 435 m 1
 195 465 l 2
 195 478 185 496 160 496 c 0
 144 496 128 486 128 464 c 0
 128 440 147 430 160 430 c 0
 171 430 183 431 195 435 c 1
EndSplineSet
EndChar

StartChar: uni0E9A
Encoding: 108 3738 12
Width: 634
GlyphClass: 2
Flags: W
HStem: 0 64<219.293 440.384> 369 62<117.739 158.474> 496 63<117.199 179.603>
VStem: 49 66<433.309 493.237> 90 89<102.471 266.217> 183 82<438.282 493.609> 497 88<118.809 556.693>
AnchorPoint: "ldia" 440 0 basechar 0
AnchorPoint: "cbelow" 460 0 basechar 0
AnchorPoint: "udia" 300 600 basechar 0
AnchorPoint: "cabove" 340 600 basechar 0
LayerCount: 2
Back
SplineSet
585 228 m 2xee
 585 50 491 0 338 0 c 0
 201 0 90 32 90 179 c 0xee
 90 260 131 315 159 370 c 1
 155 369 150 369 146 369 c 0
 94 369 49 406 49 464 c 0xf6
 49 523 85 559 153 559 c 0
 216 559 261 515 265 461 c 0
 266 444 265 426 262 409 c 0
 244 328 179 261 179 178 c 0
 179 92 220 64 336 64 c 0
 463 64 497 118 497 215 c 2
 497 523 l 2
 497 556 516 559 541 559 c 0
 569 559 585 553 585 523 c 2
 585 228 l 2xee
182 438 m 1
 183 444 183 451 183 457 c 0
 183 486 167 496 150 496 c 0
 133 496 115 488 115 464 c 0xf6
 115 441 132 431 149 431 c 0
 160 431 171 434 182 438 c 1
EndSplineSet
Fore
SplineSet
265 448 m 0xf6
 265 435 264 422 262 409 c 0
 244 328 179 261 179 178 c 0
 179 92 220 64 336 64 c 0
 463 64 497 118 497 215 c 2
 497 523 l 2
 497 556 516 559 541 559 c 0
 569 559 585 553 585 523 c 2
 585 228 l 2
 585 50 491 0 338 0 c 0
 201 0 90 32 90 179 c 0xee
 90 260 131 314 159 369 c 1
 155 368 150 369 146 369 c 0
 94 369 49 406 49 464 c 0
 49 523 85 559 153 559 c 0
 216 559 265 515 265 448 c 0xf6
183 438 m 1
 184 444 183 451 183 457 c 0
 183 486 167 496 150 496 c 0
 133 496 115 488 115 464 c 0xf6
 115 441 132 431 149 431 c 0
 160 431 172 434 183 438 c 1
EndSplineSet
EndChar

StartChar: uni0E9B
Encoding: 109 3739 13
Width: 634
GlyphClass: 2
Flags: W
HStem: 0 64<219.69 434.847> 369 62<117.739 158.474> 496 63<117.199 179.603>
VStem: 49 66<433.309 493.237> 90 89<102.471 266.217> 183 82<438.282 493.609> 490 88<121.697 657.149>
AnchorPoint: "ldia" 440 0 basechar 0
AnchorPoint: "cbelow" 460 0 basechar 0
AnchorPoint: "udia" 255 600 basechar 0
AnchorPoint: "cabove" 340 600 basechar 0
LayerCount: 2
Fore
SplineSet
183 438 m 1xf6
 184 444 183 451 183 457 c 0
 183 486 167 496 150 496 c 0
 133 496 115 488 115 464 c 0
 115 441 132 431 149 431 c 0
 160 431 172 434 183 438 c 1xf6
179 178 m 0xee
 179 92 222 64 336 64 c 0
 451 64 490 116 490 216 c 2
 490 529 l 2
 490 609 515 695 517 701 c 0
 522 720 531 728 548 728 c 0
 577 728 607 712 607 696 c 0
 607 663 578 613 578 527 c 2
 578 228 l 2
 578 47 491 0 338 0 c 0
 201 0 90 32 90 179 c 0xee
 90 260 131 314 159 369 c 1
 155 368 150 369 146 369 c 0
 94 369 49 406 49 464 c 0xf6
 49 523 85 559 153 559 c 0
 216 559 265 515 265 448 c 0
 265 435 264 422 262 409 c 0
 244 328 179 261 179 178 c 0xee
EndSplineSet
EndChar

StartChar: uni0E9C
Encoding: 110 3740 14
Width: 691
GlyphClass: 2
Flags: W
HStem: 1 63<152.662 253.186 386.994 483.319> 370 61<137.54 200.59> 376 56<137 170.484 437.307 503> 500 60<139.678 200.861 436.745 497.088>
VStem: 49 88<81.3359 376 432.07 494.93> 203 67<433.816 498.383> 277 88<89.1358 269.258> 372 63<435.525 493.562> 503 89<83.5931 379> 573 69<507.692 620.87>
AnchorPoint: "ldia" 440 0 basechar 0
AnchorPoint: "cbelow" 460 0 basechar 0
AnchorPoint: "udia" 300 600 basechar 0
AnchorPoint: "cabove" 340 600 basechar 0
LayerCount: 2
Fore
SplineSet
196 1 m 0xbf80
 95 1 49 56 49 214 c 2
 49 394 l 2
 49 482 67 560 171 560 c 0
 226 560 270 522 270 467 c 0
 270 416 234 370 174 370 c 0xdf80
 162 370 149 372 137 376 c 1
 137 306 138 247 138 187 c 0
 138 105 143 64 203 64 c 0
 242 64 277 84 277 184 c 1
 277 240 l 2
 277 268 294 272 320 272 c 0
 347 272 365 265 365 240 c 2
 365 184 l 2
 365 82 397 64 437 64 c 0
 485 64 503 93 503 185 c 2
 503 379 l 1xbf80
 492 377 482 376 471 376 c 0
 417 376 372 403 372 464 c 0
 372 520 414 559 475 559 c 0
 524 559 553 537 570 507 c 1
 572 516 573 525 573 534 c 0
 573 574 552 601 552 611 c 0
 552 636 572 643 598 643 c 0
 628 643 642 594 642 541 c 0xbf40
 642 488 622 447 591 420 c 1
 592 411 592 402 592 393 c 2
 592 231 l 2
 592 51 544 1 448 1 c 0
 391 1 341 11 320 88 c 1
 301 14 253 1 196 1 c 0xbf80
503 435 m 1
 503 446 l 2
 503 475 496 496 466 496 c 0
 451 496 435 495 435 471 c 1
 435 469 435 468 435 466 c 0
 435 447 450 432 473 432 c 0xbf80
 484 432 494 432 503 435 c 1
137 438 m 1
 148 434 160 431 171 431 c 0xdf
 184 431 203 441 203 466 c 0
 203 488 187 500 172 500 c 0
 147 500 137 479 137 467 c 2
 137 438 l 1
EndSplineSet
EndChar

StartChar: uni0E9D
Encoding: 111 3741 15
Width: 691
GlyphClass: 2
Flags: W
HStem: 0 64<155.497 253.379 385.859 483.319> 370 61<138.276 200.59> 500 60<139.678 200.861>
VStem: 49 89<79.6187 376 431.898 497.983> 203 67<433.816 498.383> 277 88<87.654 269.35> 503 89<82.5931 661.452>
AnchorPoint: "ldia" 440 0 basechar 0
AnchorPoint: "cbelow" 470 0 basechar 0
AnchorPoint: "udia" 250 600 basechar 0
AnchorPoint: "cabove" 340 600 basechar 0
LayerCount: 2
Fore
SplineSet
137 438 m 1
 148 434 160 431 171 431 c 0
 184 431 203 441 203 466 c 0
 203 488 187 500 172 500 c 0
 147 500 137 479 137 467 c 2
 137 438 l 1
138 376 m 1
 138 186 l 2
 138 107 143 64 203 64 c 0
 243 64 277 83 277 183 c 1
 277 240 l 2
 277 268 294 272 320 272 c 0
 348 272 365 265 365 240 c 2
 365 183 l 2
 365 82 397 64 437 64 c 0
 485 64 503 94 503 185 c 2
 503 521 l 2
 503 602 528 686 529 692 c 0
 533 708 543 720 560 720 c 0
 598 720 619 705 619 691 c 0
 619 670 592 602 592 521 c 2
 592 230 l 2
 592 50 544 0 448 0 c 0
 391 0 341 11 320 87 c 1
 301 13 253 0 196 0 c 0
 83 0 49 64 49 249 c 2
 49 394 l 2
 49 482 67 560 171 560 c 0
 226 560 270 522 270 467 c 0
 270 416 234 370 174 370 c 0
 162 370 149 372 138 376 c 1
EndSplineSet
EndChar

StartChar: uni0E9E
Encoding: 112 3742 16
Width: 679
GlyphClass: 2
Flags: W
HStem: 0 65<189.46 291.802 425.148 524.155> 369 61<115.532 155.813> 496 63<114.398 177.106>
VStem: 47 66<433.467 493.63> 79 88<86.3403 268.781> 181 84<435.283 492.322> 315 88<88.9859 556.227> 541 89<82.5931 556.416>
AnchorPoint: "ldia" 460 0 basechar 0
AnchorPoint: "cbelow" 490 0 basechar 0
AnchorPoint: "udia" 350 600 basechar 0
AnchorPoint: "cabove" 440 600 basechar 0
LayerCount: 2
Fore
SplineSet
240 65 m 0xef
 278 65 315 82 315 183 c 2
 315 526 l 2
 315 554 332 559 358 559 c 0
 385 559 403 552 403 526 c 2
 403 183 l 2
 403 82 436 64 477 64 c 0
 524 64 541 93 541 185 c 2
 541 525 l 2
 541 556 563 559 588 559 c 0
 616 559 630 554 630 525 c 2
 630 230 l 2
 630 50 582 0 486 0 c 0
 429 0 378 11 357 87 c 1
 339 13 289 0 232 0 c 0
 137 0 79 59 79 174 c 0xef
 79 256 126 311 156 369 c 1
 152 368 149 369 145 369 c 0
 90 369 47 407 47 465 c 0xf7
 47 523 92 559 151 559 c 0
 212 559 265 517 265 449 c 0
 265 345 167 305 167 169 c 0
 167 95 194 65 240 65 c 0xef
181 435 m 1
 182 441 181 449 181 455 c 0
 181 487 164 496 147 496 c 0
 130 496 113 488 113 464 c 0xf7
 113 445 128 430 148 430 c 0
 158 430 170 431 181 435 c 1
EndSplineSet
EndChar

StartChar: uni0E9F
Encoding: 113 3743 17
Width: 679
GlyphClass: 2
Flags: W
HStem: 0 65<191.518 291.592 423.753 523.881> 369 61<115.532 155.813> 496 63<114.398 177.106>
VStem: 47 66<433.467 493.63> 81 88<88.5636 268.781> 181 84<435.283 492.322> 315 88<88.9859 556.817> 541 89<82.5931 654.066>
AnchorPoint: "ldia" 460 0 basechar 0
AnchorPoint: "cbelow" 510 0 basechar 0
AnchorPoint: "udia" 300 600 basechar 0
AnchorPoint: "cabove" 390 600 basechar 0
LayerCount: 2
Fore
SplineSet
181 435 m 1xf7
 182 441 181 449 181 455 c 0
 181 487 164 496 147 496 c 0
 130 496 113 488 113 464 c 0
 113 445 128 430 148 430 c 0
 158 430 170 431 181 435 c 1xf7
81 174 m 0xef
 81 256 126 311 156 369 c 1
 152 368 149 369 145 369 c 0
 90 369 47 407 47 465 c 0xf7
 47 523 92 559 151 559 c 0
 212 559 265 517 265 449 c 0
 265 345 169 305 169 169 c 0
 169 101 194 65 240 65 c 0
 278 65 315 82 315 183 c 2
 315 528 l 2
 315 556 332 559 358 559 c 0
 385 559 403 554 403 528 c 2
 403 183 l 2
 403 82 435 64 476 64 c 0
 523 64 541 94 541 185 c 2
 541 529 l 2
 541 608 568 695 570 701 c 0
 575 720 583 728 599 728 c 0
 628 728 660 712 660 696 c 0
 660 663 630 611 630 527 c 2
 630 230 l 2
 630 50 582 0 486 0 c 0
 429 0 378 11 357 87 c 1
 339 13 292 0 234 0 c 0
 139 0 81 59 81 174 c 0xef
EndSplineSet
EndChar

StartChar: uni0EA1
Encoding: 114 3745 18
Width: 788
GlyphClass: 2
Flags: W
HStem: 0 61<122.896 179.579 401.67 592.02> 133 62<118.789 180.435>
VStem: 49 68<66.4253 130.55> 184 54<72.371 130.937> 250 88<122.825 556.426> 652 87<119.273 556.84>
AnchorPoint: "ldia" 580 0 basechar 0
AnchorPoint: "cbelow" 590 0 basechar 0
AnchorPoint: "udia" 450 600 basechar 0
AnchorPoint: "cabove" 490 600 basechar 0
LayerCount: 2
Back
SplineSet
250 145 m 2
 250 523 l 2
 250 553 267 559 295 559 c 0
 320 559 338 556 338 523 c 2
 338 214 l 2
 338 94 407 64 498 64 c 0
 589 64 652 93 652 214 c 2
 652 523 l 2
 652 556 672 559 697 559 c 0
 725 559 739 554 739 523 c 2
 739 249 l 2
 739 30 631 0 497 0 c 0
 427 0 322 21 299 89 c 1
 289 33 242 8 197 2 c 1
 181 1 166 0 151 1 c 0
 80 4 49 49 49 99 c 0
 49 164 89 195 152 195 c 0
 200 195 238 165 238 118 c 0
 238 99 233 83 229 72 c 1
 247 83 250 104 250 145 c 2
177 61 m 1
 180 70 184 84 184 94 c 0
 184 114 173 133 151 133 c 0
 127 133 117 119 117 100 c 0
 117 80 131 61 163 61 c 0
 168 61 173 61 177 61 c 1
EndSplineSet
Fore
SplineSet
177 61 m 1
 180 70 184 84 184 94 c 0
 184 114 173 133 151 133 c 0
 127 133 117 119 117 100 c 0
 117 80 131 61 163 61 c 2
 177 61 l 1
166 0 m 0
 79 0 49 49 49 99 c 0
 49 164 89 195 152 195 c 0
 200 195 238 165 238 118 c 0
 238 99 233 83 229 72 c 1
 247 83 250 104 250 145 c 2
 250 523 l 2
 250 553 267 559 295 559 c 0
 320 559 338 556 338 523 c 2
 338 214 l 2
 338 94 407 64 498 64 c 0
 589 64 652 93 652 214 c 2
 652 523 l 6
 652 556 672 559 697 559 c 4
 725 559 739 554 739 523 c 6
 739 249 l 2
 739 30 631 0 497 0 c 0
 427 0 322 21 299 89 c 1
 289 33 240 0 166 0 c 0
EndSplineSet
EndChar

StartChar: uni0EA2
Encoding: 115 3746 19
Width: 586
GlyphClass: 2
Flags: W
HStem: 0 64<166.697 379.515> 371 59<132.516 195.539> 495 64<133.872 196.591>
VStem: 47 85<95.3061 191.658 316.766 377 431.116 493.051> 198 69<432.203 492.992> 431 88<113.906 656.917>
AnchorPoint: "ldia" 410 0 basechar 0
AnchorPoint: "cbelow" 450 0 basechar 0
AnchorPoint: "udia" 250 600 basechar 0
AnchorPoint: "cabove" 340 600 basechar 0
LayerCount: 2
Fore
SplineSet
47 414 m 2
 47 428 l 2
 47 500 78 559 169 559 c 0
 224 559 267 518 267 467 c 0
 267 421 234 371 166 371 c 0
 155 371 143 374 132 377 c 1
 132 361 l 2
 132 277 246 327 246 256 c 0
 246 189 130 229 130 145 c 0
 130 76 211 64 286 64 c 0
 361 64 431 93 431 185 c 2
 431 526 l 2
 431 604 459 695 459 695 c 2
 463 714 474 721 487 721 c 0
 493 721 513 717 521 715 c 0
 541 709 548 704 548 692 c 0
 548 668 519 608 519 526 c 2
 519 225 l 2
 519 45 428 0 281 0 c 0
 124 0 43 51 43 145 c 0
 43 229 119 251 168 259 c 1
 162 261 155 263 149 264 c 0
 91 280 47 297 47 414 c 2
132 438 m 1
 143 433 155 430 166 430 c 0
 178 430 198 439 198 465 c 0
 198 488 181 495 166 495 c 0
 140 495 132 475 132 464 c 2
 132 438 l 1
EndSplineSet
EndChar

StartChar: uni0EA3
Encoding: 116 3747 20
Width: 621
GlyphClass: 2
Flags: W
HStem: 0 64<176.174 432.749> 87 54<171 194.789> 210 60<129.282 195.853> 494 64<165.508 423.557>
VStem: 50 86<400.733 468.894> 50 73<148.847 203.429> 198 66<143.844 208.541> 474 87<100.155 208.646>
AnchorPoint: "ldia" 440 0 basechar 0
AnchorPoint: "cbelow" 440 0 basechar 0
AnchorPoint: "udia" 300 600 basechar 0
AnchorPoint: "cabove" 340 600 basechar 0
LayerCount: 2
Back
SplineSet
171 87 m 5xf7
 206 70 254 64 307 64 c 4
 410 64 474 85 474 157 c 4
 474 222 408 243 301 274 c 4
 290 277 279 280 269 283 c 4
 147 317 50 342 50 431 c 4
 50 530 147 558 293 558 c 4
 416 558 503 527 552 471 c 4
 558 464 560 458 561 453 c 5
 561 445 556 442 548 435 c 5
 540 425 530 410 522 408 c 5
 519 408 l 6
 513 408 508 413 502 421 c 4
 458 472 375 494 296 494 c 4
 211 494 136 481 136 431 c 4xfb
 136 386 261 363 353 337 c 5
 470 302 561 255 561 160 c 4
 561 51 474 0 305 0 c 4
 176 0 50 43 50 154 c 4
 50 222 96 270 166 270 c 4
 235 270 264 227 264 181 c 4
 264 125 224 87 171 87 c 5xf7
123 153 m 5xf7
 136 147 152 141 165 141 c 4
 181 141 198 152 198 176 c 4
 198 192 189 210 167 210 c 4
 140 210 123 196 123 153 c 5xf7
EndSplineSet
Fore
SplineSet
123 153 m 1xf7
 136 147 152 141 165 141 c 0
 181 141 198 152 198 176 c 0
 198 192 189 210 167 210 c 0
 140 210 123 196 123 153 c 1xf7
519 408 m 0
 513 408 508 413 502 421 c 0
 458 472 375 494 296 494 c 0
 211 494 136 481 136 431 c 0xfb
 136 386 261 363 353 337 c 1
 470 302 561 255 561 160 c 0
 561 51 474 0 305 0 c 0
 176 0 50 43 50 154 c 0xf7
 50 222 96 270 166 270 c 0
 235 270 264 227 264 181 c 0
 264 125 224 87 171 87 c 1
 206 70 254 64 307 64 c 0
 410 64 474 85 474 157 c 0
 474 222 408 243 301 274 c 0
 290 277 279 280 269 283 c 0
 147 317 50 342 50 431 c 0xfb
 50 530 147 558 293 558 c 0
 416 558 503 528 552 472 c 0
 558 465 561 460 561 453 c 0
 561 443 532 408 519 408 c 0
EndSplineSet
EndChar

StartChar: uni0EA5
Encoding: 117 3749 21
Width: 590
GlyphClass: 2
Flags: W
HStem: 0 69<403.413 457.706> 0 56<109.865 172.481> 124 56<125.467 172.688> 205 62<132.024 259.855> 494 65<170.5 411.818>
VStem: 30 73<60.5321 120.459> 46 81<342.703 451.578> 175 64<57.5424 122.177> 462 90<70.4031 441.038>
AnchorPoint: "ldia" 440 0 basechar 0
AnchorPoint: "cbelow" 440 0 basechar 0
AnchorPoint: "udia" 300 600 basechar 0
AnchorPoint: "cabove" 340 600 basechar 0
LayerCount: 2
Back
SplineSet
301 559 m 0xbb80
 408 559 552 549 552 346 c 2
 552 145 l 2
 552 38 509 0 445 0 c 0xbb80
 279 0 344 205 191 205 c 0
 165 205 141 194 125 177 c 1
 133 179 141 180 148 180 c 0
 217 180 239 126 239 91 c 0
 239 51 217 0 144 0 c 0
 68 0 30 55 30 119 c 0x7d80
 30 226 129 267 200 267 c 0
 378 267 374 69 433 69 c 0
 461.125 69 462.004 90.9727 462.004 141.51 c 0
 462.004 144.879 462 148.375 462 152 c 2
 462 346 l 2
 462 468 410 494 301 494 c 0
 200 494 127 490 127 366 c 0
 127 345 118 342 87 342 c 0
 56 342 46 344 46 369 c 0
 46 517 140 559 301 559 c 0xbb80
103 112 m 1x7d80
 103 66 122 56 144 56 c 0
 165 56 175 72 175 92 c 0
 175 110 164 124 144 124 c 0
 132 124 117 118 103 112 c 1x7d80
EndSplineSet
Fore
SplineSet
462 152 m 0xbd80
 462 346 l 2
 462 468 410 494 301 494 c 0
 200 494 127 490 127 366 c 0
 127 345 118 342 87 342 c 0
 56 342 46 344 46 369 c 0
 46 517 140 559 301 559 c 0
 408 559 552 549 552 346 c 2
 552 145 l 2
 552 38 509 0 445 0 c 0xbb80
 279 0 344 205 191 205 c 0
 165 205 141 194 125 177 c 1
 133 179 141 180 148 180 c 0
 217 180 239 126 239 91 c 0
 239 51 217 0 144 0 c 0x7b80
 68 0 30 55 30 119 c 0
 30 226 129 267 200 267 c 0
 378 267 374 69 433 69 c 0
 461 69 462 90 462 152 c 0xbd80
103 112 m 1x7d80
 103 66 122 56 144 56 c 0
 165 56 175 72 175 92 c 0
 175 110 164 124 144 124 c 0
 132 124 117 118 103 112 c 1x7d80
EndSplineSet
EndChar

StartChar: uni0EA7
Encoding: 118 3751 22
Width: 606
GlyphClass: 2
Flags: W
HStem: 0 64<176.507 407.655> 202 60<121.096 187.449> 494 64<175.945 417.939>
VStem: 42 73<140.852 195.429> 53 81<342.817 450.254> 190 66<135.162 200.508> 469 89<123.437 444.094>
AnchorPoint: "ldia" 440 0 basechar 0
AnchorPoint: "cbelow" 440 0 basechar 0
AnchorPoint: "udia" 300 600 basechar 0
AnchorPoint: "cabove" 340 600 basechar 0
LayerCount: 2
Fore
SplineSet
173 80 m 1xf6
 209 68 254 64 303 64 c 0
 411 64 469 105 469 207 c 2
 469 343 l 2
 469 461 426 494 310 494 c 0
 202 494 134 487 134 367 c 0
 134 345 125 342 93 342 c 0
 63 342 53 344 53 369 c 0xee
 53 514 142 558 310 558 c 0
 443 558 558 543 558 303 c 2
 558 208 l 2
 558 73 469 0 301 0 c 0
 172 0 42 35 42 146 c 0
 42 214 87 262 158 262 c 0
 226 262 256 219 256 173 c 0
 256 121 221 86 173 80 c 1xf6
115 145 m 1xf6
 128 139 144 133 157 133 c 0
 172 133 190 143 190 167 c 0
 190 183 181 202 159 202 c 0
 132 202 115 188 115 145 c 1xf6
EndSplineSet
EndChar

StartChar: uni0EAA
Encoding: 119 3754 23
Width: 628
GlyphClass: 2
Flags: W
HStem: 1 68<415.281 466.698> 1 53<132.966 200.767> 117 58<145.233 201.269> 186 69<146.794 271.214> 322 69<143.875 355.599> 495 64<159.654 398.535>
VStem: 55 76<57.4905 115.39 407.155 468.361> 202 64<55.9469 115.586> 472 91<71.784 398.596>
AnchorPoint: "ldia" 440 0 basechar 0
AnchorPoint: "cbelow" 440 0 basechar 0
AnchorPoint: "udia" 300 600 basechar 0
AnchorPoint: "cabove" 340 600 basechar 0
LayerCount: 2
Fore
SplineSet
563 145 m 2xbf80
 563 33 515 1 464 1 c 0xbf80
 442 1 424 3 410 8 c 0
 303 39 335 186 202 186 c 0
 177 186 158 182 145 171 c 1
 153 174 163 175 172 175 c 0
 241 175 266 126 266 87 c 0
 266 38 240 1 167 1 c 0x7f80
 89 1 55 51 55 114 c 0
 55 222 143 255 211 255 c 0
 390 255 390 69 444 69 c 0
 470 69 472 95 472 194 c 2
 472 337 l 2
 472 362 469 382 463 400 c 1
 418 361 348 322 248 322 c 0
 160 322 55 343 55 435 c 0
 55 528 145 559 274 559 c 0
 348 559 422 549 476 515 c 1
 496 545 512 576 516 582 c 0
 523 595 528 599 537 599 c 0
 548 599 579 581 579 567 c 0
 579 566 579 566 579 565 c 0
 575 541 550 503 525 469 c 1
 549 436 563 393 563 335 c 2
 563 145 l 2xbf80
427 456 m 1
 388 489 328 495 266 495 c 0
 206 495 131 479 131 435 c 0
 131 403 189 391 243 391 c 0
 329 391 389 422 427 456 c 1
127 106 m 1
 127 64 147 54 169 54 c 0x7f80
 190 54 202 62 202 87 c 0
 202 108 191 117 168 117 c 0
 153 117 139 112 127 106 c 1
EndSplineSet
EndChar

StartChar: uni0EAB
Encoding: 120 3755 24
Width: 839
GlyphClass: 2
Flags: W
HStem: 0 65<216.859 382.75> 366 64<117.739 158.474 358.268 426.437> 497 61<117.325 179.442 357.663 420.52 563.867 680.684>
VStem: 49 66<433.309 494.829> 90 87<103.685 267.046> 183 82<438.282 494.646> 288 68<431.292 495.128> 427 88<113.496 373 432.52 454.251> 705 86<2.25089 473.135>
AnchorPoint: "ldia" 640 0 basechar 0
AnchorPoint: "cbelow" 630 0 basechar 0
AnchorPoint: "udia" 400 600 basechar 0
AnchorPoint: "cabove" 490 600 basechar 0
LayerCount: 2
Back
SplineSet
705 36 m 2
 705 3 724 0 749 0 c 0
 777 0 791 5 791 36 c 2
EndSplineSet
Fore
SplineSet
624 558 m 0xef80
 747 558 791 499 791 337 c 2
 791 33 l 2
 791 5 776 0 748 0 c 0
 725 0 705 5 705 32 c 2
 705 397 l 2
 705 450 693 494 621 494 c 0
 578 494 547 465 515 435 c 1
 515 257 l 2
 515 80 457 0 307 0 c 0
 200 0 90 37 90 178 c 0xef80
 90 260 131 313 159 369 c 1
 155 368 150 369 146 369 c 0
 94 369 49 406 49 464 c 0xf780
 49 523 85 559 153 559 c 0
 216 559 265 515 265 461 c 0
 265 343 177 280 177 179 c 0
 177 93 223 65 310 65 c 0
 383 65 427 105 427 210 c 2
 427 373 l 1
 415 369 402 366 388 366 c 0
 329 366 288 403 288 462 c 0
 288 514 315 558 394 558 c 0
 443 558 477 536 496 502 c 1
 529 531 569 558 624 558 c 0xef80
427 443 m 1
 427 470 417 497 389 497 c 0
 367 497 356 484 356 462 c 0
 356 441 368 430 389 430 c 0
 402 430 415 435 427 443 c 1
183 438 m 1
 184 444 183 451 183 457 c 0
 183 486 167 497 150 497 c 0
 133 497 115 488 115 464 c 0xf780
 115 441 132 431 149 431 c 0
 160 431 172 434 183 438 c 1
EndSplineSet
EndChar

StartChar: uni0EAD
Encoding: 121 3757 25
Width: 595
GlyphClass: 2
Flags: W
HStem: 0 64<171.493 406.166> 202 60<115.138 181.115> 299 68<156.384 432.895> 494 65<159.121 420.993>
VStem: 36 73<140.898 195.429> 51 78<393.437 465.798> 184 66<135.471 200.702> 470 89<121.852 333>
AnchorPoint: "ldia" 432 0 basechar 0
AnchorPoint: "cbelow" 452 0 basechar 0
AnchorPoint: "udia" 300 600 basechar 0
AnchorPoint: "cabove" 340 600 basechar 0
LayerCount: 2
Fore
SplineSet
294 64 m 0xfb
 405 64 470 100 470 202 c 2
 470 333 l 1
 429 311 369 299 296 299 c 0
 188 299 51 321 51 427 c 0xf7
 51 526 159 559 305 559 c 0
 435 559 559 529 559 355 c 2
 559 202 l 2
 559 72 470 0 295 0 c 0
 164 0 36 36 36 146 c 0
 36 214 82 262 152 262 c 0
 218 262 250 220 250 173 c 0
 250 122 216 88 170 81 c 1
 203 70 247 64 294 64 c 0xfb
109 145 m 1xfb
 122 139 138 133 151 133 c 0
 166 133 184 142 184 167 c 0
 184 183 175 202 153 202 c 0
 127 202 109 189 109 145 c 1xfb
464 416 m 1
 448 474 398 494 305 494 c 0
 212 494 129 484 129 428 c 0xf7
 129 381 200 367 295 367 c 0
 390 367 447 384 464 416 c 1
EndSplineSet
EndChar

StartChar: uni0EAE
Encoding: 122 3758 26
Width: 590
GlyphClass: 2
Flags: W
HStem: 0 64<174.477 436.532> 202 60<124.326 188.804> 451 70<271.953 459.489> 493 66<139.697 269.135>
VStem: 44 74<140.898 198.006> 45 87<405.601 486.486> 192 66<135.482 199.51> 470 89<94.4978 204.783>
AnchorPoint: "ldia" 440 0 basechar 0
AnchorPoint: "cbelow" 460 0 basechar 0
AnchorPoint: "udia" 300 600 basechar 0
AnchorPoint: "cabove" 340 600 basechar 0
LayerCount: 2
Fore
SplineSet
45 438 m 0xd7
 45 515 104 559 176 559 c 0xd7
 261 559 303 521 367 521 c 0
 422 521 454 537 488 560 c 0
 495 565 500 570 508 570 c 0
 519 570 543 542 543 530 c 0
 543 523 537 518 531 511 c 0
 504 478 438 451 365 451 c 0xe7
 294 451 236 493 182 493 c 0
 136 493 132 457 132 440 c 0xd7
 132 389 244 364 350 331 c 0
 456 298 559 252 559 155 c 0
 559 51 483 0 303 0 c 0
 173 0 44 36 44 146 c 0xdb
 44 214 89 262 159 262 c 0
 226 262 258 220 258 173 c 0
 258 119 222 85 173 80 c 1
 204 69 248 64 302 64 c 0
 417 64 470 81 470 152 c 0
 470 213 411 236 317 266 c 0
 198 305 45 336 45 438 c 0xd7
118 145 m 1xcb
 132 139 147 133 160 133 c 0
 175 133 192 142 192 167 c 0
 192 182 183 202 160 202 c 0
 134 202 118 190 118 145 c 1xcb
EndSplineSet
EndChar

StartChar: uni0EAF
Encoding: 123 3759 27
Width: 620
GlyphClass: 2
Flags: W
HStem: 267 67<155.493 314.88> 367 61<139.383 205.907> 496 63<133.825 205.321>
VStem: 46 83<433.176 489.898> 208 71<430.044 493.458>
DStem2: 405 351 560 504 0.426298 0.904583<-594.095 0>
LayerCount: 2
Back
SplineSet
506 573 m 0
 510 575 515 575 521 574 c 0
 526 574 533 570 540 567 c 0
 556 558 569 551 571 539 c 1
 571 533 l 1
 560 504 l 1
 232 -192 l 1
 208 -219 l 1
 205 -221 203 -222 198 -221 c 1
 192 -221 186 -218 179 -214 c 0
 166 -208 153 -200 151 -189 c 1
 151 -183 l 1
 161 -158 l 1
 405 351 l 2
 405 350 349 267 230 267 c 0
 111 267 46 326 46 422 c 0
 46 497 77 559 169 559 c 0
 245 559 279 512 279 465 c 0
 279 404 238 367 183 367 c 0
 166 367 152 371 139 376 c 1
 153 349 182 334 233 334 c 0
 333 334 421 431 480 544 c 0
 489 560 496 569 506 573 c 0
129 448 m 1
 142 436 157 428 176 428 c 0
 201 428 208 445 208 462 c 0
 208 481 197 496 171 496 c 0
 141 496 129 476 129 448 c 1
EndSplineSet
Fore
SplineSet
571 538 m 0
 571 524 560 504 560 504 c 1
 232 -192 l 18
 224 -209 212 -220 203 -220 c 0
 189 -220 152 -203 152 -187 c 0
 152 -177 156 -169 161 -158 c 26
 405 351 l 2
 405 350 349 267 230 267 c 0
 111 267 46 326 46 422 c 0
 46 497 77 559 169 559 c 0
 245 559 279 512 279 465 c 0
 279 404 238 367 183 367 c 0
 166 367 152 371 139 376 c 1
 153 349 182 334 233 334 c 0
 333 334 421 431 480 544 c 0
 489 560 497 574 513 574 c 0
 539 574 571 552 571 538 c 0
129 448 m 1
 142 436 157 428 176 428 c 0
 201 428 208 445 208 462 c 0
 208 481 197 496 171 496 c 0
 141 496 129 476 129 448 c 1
EndSplineSet
EndChar

StartChar: uni0EB0
Encoding: 124 3760 28
Width: 543
GlyphClass: 2
Flags: W
HStem: 28 76<223.362 362.061> 180 56<114.566 171.537> 329 76<223.362 362.061> 480 57<114.515 171.592>
VStem: 48 66<123.697 178.965 424.697 479.481> 172 63<114.506 179.032 415.506 478.445> 421 72<169.048 240.146 465.525 541.146>
LayerCount: 2
Fore
SplineSet
493 223 m 0
 493 148 453 28 252 28 c 0
 126 28 48 79 48 150 c 0
 48 211 96 236 143 236 c 0
 197 236 235 210 235 155 c 0
 235 135 230 119 223 105 c 1
 232 105 241 104 251 104 c 0
 365 104 393 136 414 203 c 0
 416 210 419 217 421 225 c 0
 424 237 434 242 450 242 c 0
 473 242 493 237 493 223 c 0
493 523 m 0
 493 449 453 329 252 329 c 0
 126 329 48 380 48 451 c 0
 48 512 96 537 143 537 c 0
 197 537 235 511 235 456 c 0
 235 436 230 420 223 406 c 1
 232 406 241 405 251 405 c 0
 376 405 401 445 421 526 c 0
 424 538 434 543 450 543 c 0
 473 543 493 538 493 523 c 0
159 114 m 1
 166 125 172 137 172 151 c 0
 172 172 162 180 142 180 c 0
 122 180 114 169 114 151 c 0
 114 136 128 123 159 114 c 1
159 415 m 1
 166 426 172 438 172 452 c 0
 172 472 162 480 142 480 c 0
 122 480 114 470 114 452 c 0
 114 437 128 424 159 415 c 1
EndSplineSet
EndChar

StartChar: uni0EB1
Encoding: 125 3761 29
Width: 0
GlyphClass: 4
Flags: W
HStem: 624 76<-325.686 -190.429> 776 57<-435.521 -379.462>
VStem: -503 67<719.96 775.622> -379 63<710.506 775.123> -139 81<744.084 835.03>
AnchorPoint: "tone" -250 880 basemark 0
AnchorPoint: "udia" -300 600 mark 0
LayerCount: 2
Fore
SplineSet
-58 819 m 0
 -58 752 -89 624 -296 624 c 0
 -427 624 -503 676 -503 746 c 0
 -503 804 -458 833 -408 833 c 0
 -354 833 -316 806 -316 751 c 0
 -316 731 -321 715 -328 701 c 1
 -318 701 -307 700 -296 700 c 0
 -194 700 -151 732 -139 786 c 1
 -130 820 -129 838 -102 838 c 0
 -76 838 -58 833 -58 819 c 0
-392 710 m 1
 -385 721 -379 734 -379 747 c 0
 -379 768 -389 776 -408 776 c 0
 -428 776 -436 767 -436 749 c 0
 -436 733 -422 719 -392 710 c 1
EndSplineSet
EndChar

StartChar: uni0EB2
Encoding: 126 3762 30
Width: 412
GlyphClass: 2
Flags: W
HStem: 0 21G<287.5 314.5> 351 61<61.9362 123.78>
VStem: -9 68<414.107 482.938> 126 65<414.136 488.747> 254 88<1.48523 468.297>
LayerCount: 2
Fore
SplineSet
254 32 m 2
 254 404 l 2
 254 454 238 486 175 493 c 1
 184 480 191 464 191 444 c 0
 191 382 143 351 94 351 c 0
 34 351 -9 386 -9 449 c 0
 -9 519 60 559 163 559 c 0
 271 559 342 502 342 401 c 2
 342 32 l 2
 342 3 329 0 300 0 c 0
 275 0 254 0 254 32 c 2
102 491 m 1
 70 484 59 467 59 450 c 0
 59 427 72 412 93 412 c 0
 117 412 126 430 126 446 c 0
 126 463 113 480 102 491 c 1
EndSplineSet
EndChar

StartChar: uni0EB4
Encoding: 128 3764 32
Width: 0
GlyphClass: 4
Flags: W
HStem: 631 64<-435.649 -357.743 -242.097 -162.351> 792 61<-424.158 -173.864>
VStem: -520 76<702.582 770.946> -155 77<702.637 771.372>
AnchorPoint: "tone" -300 880 basemark 0
AnchorPoint: "udia" -300 600 mark 0
LayerCount: 2
Fore
SplineSet
-299 792 m 0
 -366 792 -444 785 -444 739 c 0
 -444 698 -404 695 -375 695 c 0
 -363 695 -357 681 -357 663 c 0
 -357 642 -363 631 -375 631 c 0
 -450 631 -520 661 -520 738 c 0
 -520 833 -401 853 -299 853 c 0
 -197 853 -78 832 -78 738 c 0
 -78 663 -148 631 -223 631 c 0
 -234 631 -243 643 -243 663 c 0
 -243 681 -236 695 -223 695 c 0
 -194 695 -155 698 -155 739 c 0
 -155 785 -228 792 -299 792 c 0
EndSplineSet
EndChar

StartChar: uni0EB5
Encoding: 129 3765 33
Width: 0
GlyphClass: 4
Flags: W
HStem: 631 64<-434.25 -354.739 -239.139 -157.822 -98 -24.8613> 792 61<-421.753 -169.326>
VStem: -517 76<703.819 772.364> -152 76<702.748 771.468>
AnchorPoint: "tone" -300 880 basemark 0
AnchorPoint: "udia" -300 600 mark 0
LayerCount: 2
Fore
SplineSet
-42 631 m 2
 -222 631 l 2
 -233 631 -240 645 -240 662 c 0
 -240 680 -234 695 -222 695 c 0
 -191 695 -152 698 -152 739 c 0
 -152 785 -225 792 -296 792 c 0
 -365 792 -441 785 -441 739 c 0
 -441 698 -400 695 -371 695 c 0
 -359 695 -354 680 -354 662 c 0
 -354 644 -360 631 -371 631 c 0
 -459 631 -517 668 -517 738 c 0
 -517 827 -410 853 -296 853 c 0
 -186 853 -76 828 -76 740 c 0
 -76 715 -90 699 -98 695 c 1
 -42 695 l 2
 -30 695 -24 680 -24 662 c 0
 -24 644 -31 631 -42 631 c 2
EndSplineSet
EndChar

StartChar: uni0EB6
Encoding: 130 3766 34
Width: 0
GlyphClass: 4
Flags: W
HStem: 631 64<-436.456 -357.76 -242.097 -162.073> 685 75<-340.883 -259.117> 792 61<-424.753 -172.36>
VStem: -520 76<702.46 772.364> -346 92<691.539 754.146> -155 77<703.521 772.675>
AnchorPoint: "tone" -300 880 basemark 0
AnchorPoint: "udia" -300 600 mark 0
LayerCount: 2
Fore
SplineSet
-300 760 m 0x7c
 -278 760 -254 745 -254 724 c 0
 -254 702 -277 685 -300 685 c 0
 -323 685 -346 702 -346 724 c 0
 -346 745 -322 760 -300 760 c 0x7c
-299 792 m 0
 -368 792 -444 785 -444 739 c 0
 -444 698 -405 695 -376 695 c 0
 -362 695 -357 681 -357 662 c 0
 -357 642 -363 631 -376 631 c 0
 -451 631 -520 662 -520 738 c 0
 -520 827 -413 853 -299 853 c 0
 -190 853 -78 829 -78 738 c 0
 -78 668 -140 631 -223 631 c 0
 -234 631 -243 643 -243 662 c 0
 -243 681 -237 695 -223 695 c 0xbc
 -194 695 -155 698 -155 739 c 0
 -155 785 -228 792 -299 792 c 0
EndSplineSet
EndChar

StartChar: uni0EB7
Encoding: 131 3767 35
Width: 0
GlyphClass: 4
Flags: W
HStem: 631 64<-432.961 -355.067 -239.128 -157.443 -98 -24.8626> 685 75<-338.054 -256.117> 792 61<-421.232 -171.012>
VStem: -517 76<703.506 771.868> -343 92<691.539 754.146> -152 76<702.36 772.474>
AnchorPoint: "tone" -300 880 basemark 0
AnchorPoint: "udia" -300 600 mark 0
LayerCount: 2
Fore
SplineSet
-297 760 m 0x7c
 -275 760 -251 745 -251 724 c 0
 -251 702 -274 685 -297 685 c 0
 -321 685 -343 702 -343 724 c 0
 -343 745 -320 760 -297 760 c 0x7c
-221 631 m 2xbc
 -234 631 -240 647 -240 662 c 0
 -240 678 -235 695 -222 695 c 0
 -188 695 -152 699 -152 739 c 0
 -152 783 -221 792 -297 792 c 0
 -372 792 -441 781 -441 739 c 0
 -441 717 -429 705 -412 700 c 0
 -385 692 -354 703 -354 662 c 0
 -354 647 -359 631 -371 631 c 0
 -456 631 -517 666 -517 738 c 0
 -517 826 -412 853 -297 853 c 0
 -181 853 -76 825 -76 739 c 0
 -76 715 -90 699 -98 695 c 1
 -42 695 l 2
 -29 695 -24 678 -24 662 c 0
 -24 647 -29 631 -42 631 c 2
 -221 631 l 2xbc
EndSplineSet
EndChar

StartChar: uni0EB8
Encoding: 132 3768 36
Width: 0
GlyphClass: 4
Flags: W
HStem: -239 58<-196.127 -178> -123 59<-195.824 -143.128>
VStem: -261 64<-180.05 -124.24> -141 72<-177.58 -123.785>
AnchorPoint: "lstack" -160 55 mark 0
AnchorPoint: "ldia" -160 0 mark 0
LayerCount: 2
Fore
SplineSet
-178 -239 m 1
 -216 -239 -261 -211 -261 -152 c 0
 -261 -101 -226 -64 -167 -64 c 0
 -116 -64 -69 -95 -69 -154 c 0
 -69 -159 -70 -164 -70 -169 c 0
 -70 -239 -124 -298 -185 -346 c 1
 -190 -351 -195 -353 -199 -353 c 0
 -206 -353 -212 -349 -219 -343 c 1
 -223 -343 -231 -334 -231 -329 c 1
 -237 -323 -241 -317 -241 -312 c 0
 -241 -307 -239 -303 -233 -297 c 1
 -209 -277 -192 -257 -178 -239 c 1
-145 -178 m 1
 -142 -169 -141 -163 -141 -158 c 0
 -141 -132 -156 -123 -168 -123 c 0
 -187 -123 -197 -132 -197 -152 c 0
 -197 -171 -188 -181 -168 -181 c 0
 -161 -181 -153 -180 -145 -178 c 1
EndSplineSet
EndChar

StartChar: uni0EB9
Encoding: 133 3769 37
Width: 0
GlyphClass: 4
Flags: W
HStem: -335 52<-207.765 -136.677> -180 46<-283.449 -259.307> -98 48<-284.431 -247.761>
VStem: -338 53<-133.905 -98.6303> -273 64<-280.89 -179.744> -247 58<-130.812 -98.5214> -133 68<-280.332 -51.3561>
AnchorPoint: "lstack" -240 100 mark 0
AnchorPoint: "ldia" -160 0 mark 0
LayerCount: 2
Fore
SplineSet
-189 -113 m 1xf6
 -189 -161 -209 -224 -209 -253 c 0
 -209 -276 -194 -283 -172 -283 c 0
 -134 -283 -133 -264 -133 -208 c 2
 -133 -70 l 2
 -133 -51 -114 -51 -99 -51 c 0
 -81 -51 -65 -51 -65 -70 c 2
 -65 -198 l 2
 -65 -319 -104 -335 -177 -335 c 0
 -235 -335 -273 -307 -273 -256 c 0xfa
 -273 -243 -266 -210 -259 -180 c 1
 -262 -180 -265 -180 -269 -180 c 0
 -309 -180 -338 -155 -338 -117 c 0
 -338 -77 -315 -50 -264 -50 c 0
 -214 -50 -189 -82 -189 -113 c 1xf6
-247 -131 m 1xf6
 -246 -127 -247 -123 -247 -121 c 0
 -247 -104 -258 -98 -267 -98 c 0
 -277 -98 -285 -105 -285 -117 c 0
 -285 -128 -278 -134 -266 -134 c 0
 -260 -134 -252 -133 -247 -131 c 1xf6
EndSplineSet
EndChar

StartChar: uni0EBB
Encoding: 134 3771 38
Width: 0
GlyphClass: 4
Flags: W
HStem: 627 58<-434.604 -378.594> 761 75<-326.837 -189.225>
VStem: -502 66<686.479 740.039> -378 63<686.18 749.625> -129 72<624.702 660>
AnchorPoint: "tone" -295 880 basemark 0
AnchorPoint: "udia" -300 600 mark 0
LayerCount: 2
Fore
SplineSet
-57 642 m 0
 -57 627 -77 623 -101 623 c 0
 -116 623 -126 627 -129 639 c 0
 -131 646 -133 653 -135 660 c 0
 -156 727 -185 761 -299 761 c 0
 -309 761 -319 762 -328 761 c 1
 -320 747 -315 729 -315 708 c 0
 -315 654 -354 627 -407 627 c 0
 -455 627 -502 652 -502 714 c 0
 -502 785 -425 836 -298 836 c 0
 -98 836 -57 716 -57 642 c 0
-391 750 m 1
 -421 741 -436 728 -436 713 c 0
 -436 695 -428 685 -408 685 c 0
 -388 685 -378 692 -378 713 c 0
 -378 727 -384 739 -391 750 c 1
EndSplineSet
EndChar

StartChar: uni0EBC
Encoding: 135 3772 39
Width: 0
GlyphClass: 4
Flags: W
HStem: -247 58<-467.181 -410.978> -240 76<-232.725 -171.095> -130 77<-464.125 -410.79>
VStem: -535 67<-187.599 -135.157> -410 63<-187.479 -158.114> -155 80<-155.908 -44.4719>
AnchorPoint: "lstack" -250 -170 basemark 0
AnchorPoint: "cbelow" -160 0 mark 0
LayerCount: 2
Fore
SplineSet
-415 -53 m 0xbc
 -315 -53 -225 -164 -193 -164 c 0
 -173 -164 -168 -141 -161 -113 c 0
 -158 -100 -156 -89 -155 -87 c 0
 -147 -57 -146 -42 -122 -42 c 0
 -94 -42 -75 -49 -75 -62 c 0
 -75 -131 -94 -240 -190 -240 c 0x7c
 -261 -240 -303 -191 -347 -158 c 1
 -347 -160 -347 -162 -347 -165 c 0
 -347 -223 -388 -247 -439 -247 c 0
 -484 -247 -535 -223 -535 -160 c 0
 -535 -94 -487 -53 -415 -53 c 0xbc
-419 -130 m 1
 -443 -130 -468 -137 -468 -162 c 0
 -468 -180 -459 -189 -439 -189 c 0xbc
 -418 -189 -410 -181 -410 -160 c 0
 -410 -150 -414 -139 -419 -130 c 1
EndSplineSet
EndChar

StartChar: uni0EBD
Encoding: 136 3773 40
Width: 499
GlyphClass: 2
Flags: W
HStem: -207 69<221 322.573> -58 62<107.545 174.998> 446 79<297.011 419.5> 515 70<118.513 222.711>
VStem: 41 65<-120.66 -60.4961> 42 76<463.045 514.372> 176 66<-130.454 -59.898> 353 87<-104.662 291.973> 384 85<526.224 596.344>
DStem2: 335 385 118 389 0.932005 -0.362446<-238.971 42.9927> 209 573 203 500 0.95435 -0.29869<-45.9727 163.935>
LayerCount: 2
Fore
SplineSet
469 564 m 0xe680
 469 474 442 446 397 446 c 0xe680
 356 446 317 462 297 468 c 2
 203 500 l 2
 193 503 156 515 142 515 c 0
 127 515 118 507 118 487 c 0xd680
 118 473 129 467 155 455 c 1
 335 385 l 2
 421 351 440 299 440 208 c 2
 440 -19 l 2
 440 -123 402 -207 237 -207 c 0
 95 -207 41 -160 41 -93 c 0xdb
 41 -25 89 4 141 4 c 0
 200 4 242 -31 242 -84 c 0
 242 -106 232 -124 221 -138 c 1
 223 -138 226 -138 228 -138 c 0
 329 -138 353 -105 353 -24 c 2
 353 214 l 2
 353 272 341 299 293 320 c 1
 118 389 l 1
 71 409 42 430 42 492 c 0
 42 554 87 585 134 585 c 0xd7
 162 585 206 574 209 573 c 2
 340 532 l 2
 342 531 361 525 366 525 c 0
 384 525 384 539 384 566 c 0
 384 596 402 598 428 598 c 0
 459 598 469 590 469 564 c 0xe680
155 -131 m 1
 165 -120 176 -104 176 -87 c 0
 176 -65 162 -58 141 -58 c 0
 115 -58 106 -72 106 -90 c 0xca
 106 -106 117 -122 155 -131 c 1
EndSplineSet
EndChar

StartChar: uni0EC0
Encoding: 137 3776 41
Width: 351
GlyphClass: 2
Flags: W
HStem: 0 59<193.942 255.499> 124 62<194.182 257.911> 478 80<149.8 258.191> 478 67<182.316 268.467>
VStem: 49 87<99.9843 463.967> 142 51<98 122.996> 259 65<63.4687 122.758>
LayerCount: 2
Fore
SplineSet
250 478 m 2xee
 232 478 l 1
 219 478 207 478 197 478 c 0
 147 478 136 457 136 370 c 2
 136 147 l 2
 136 128 138 111 142 98 c 1
 142 100 142 103 142 105 c 0
 142 143 171 186 228 186 c 0
 284 186 324 150 324 93 c 0
 324 32 295 0 198 0 c 0
 100 0 49 57 49 154 c 2
 49 318 l 2
 49 499 78 558 181 558 c 0xee
 209 558 242 553 259 545 c 1xde
 268 542 272 534 272 524 c 0
 272 505 265 478 250 478 c 2xee
199 59 m 1
 202 59 204 59 207 59 c 0
 247 59 259 71 259 93 c 0
 259 112 250 124 225 124 c 0
 203 124 193 114 193 94 c 0
 193 81 196 68 199 59 c 1
EndSplineSet
EndChar

StartChar: uni0EC2
Encoding: 139 3778 43
Width: 500
GlyphClass: 2
Flags: W
HStem: -3 60<315.296 375.547> 121 62<314.729 378.113> 815 71<128.014 192.504>
VStem: 51 75<750.19 811.656> 170 85<97.5913 521.908> 264 50<95 119.791> 380 66<60.5216 119.828>
LayerCount: 2
Fore
SplineSet
255 459 m 2
 255 146 l 2
 255 125 259 108 264 95 c 1
 264 97 264 100 264 102 c 0
 264 160 309 183 348 183 c 0
 408 183 446 144 446 88 c 0
 446 24 408 -3 317 -3 c 0
 233 -3 170 44 170 152 c 2
 170 435 l 1
 170 493 186 546 212 571 c 1
 123 666 l 1
 94 695 60 724 51 762 c 1
 50 768 51 774 51 780 c 0
 51 846 97 886 144 886 c 1
 178 886 199 878 220 861 c 1
 294 795 361 729 398 721 c 0
 401 720 405 719 408 720 c 1
 408 694 l 1
 399 657 l 1
 389 655 380 654 371 656 c 1
 361 656 351 659 341 665 c 0
 322 676 287 707 229 762 c 1
 185 800 l 1
 176 811 167 815 157 815 c 1
 145 815 129 802 125 787 c 0
 125 785 125 783 126 780 c 0
 130 763 162 736 183 716 c 0
 236 665 290 614 346 565 c 1
 285 549 255 508 255 459 c 2
323 57 m 1
 325 57 328 57 331 57 c 0
 365 57 380 67 380 91 c 0
 380 107 373 121 347 121 c 0
 325 121 314 112 314 92 c 0
 314 79 318 66 323 57 c 1
EndSplineSet
EndChar

StartChar: uni0EC3
Encoding: 140 3779 44
Width: 500
GlyphClass: 2
Flags: W
HStem: 0 60<323.296 383.547> 124 62<322.729 386.113> 572 63<133.948 238.099> 750 72<141.284 358.787>
VStem: 45 77<646 728.595> 178 88<100.591 445.419> 272 50<98 122.791> 375 86<628.795 733.377> 388 66<63.5216 122.828>
LayerCount: 2
Fore
SplineSet
175 572 m 0xff
 107 572 45 613 45 684 c 0
 45 767 116 822 245 822 c 0
 396 822 461 775 461 689 c 0xff
 461 510 266 538 266 358 c 2
 266 149 l 2
 266 128 267 111 272 98 c 1
 272 100 272 103 272 105 c 0
 272 163 317 186 356 186 c 0
 416 186 454 147 454 91 c 0xfe80
 454 27 416 0 325 0 c 0
 241 0 178 47 178 155 c 2
 178 363 l 1
 178 574 375 566 375 688 c 0
 375 747 321 750 249 750 c 0
 182 750 122 742 122 686 c 0
 122 680 130 635 175 635 c 0
 205 635 228 637 256 678 c 0
 263 689 271 694 278 693 c 1
 292 693 320 670 320 657 c 0
 320 651 318 643 311 634 c 0
 275 585 237 572 175 572 c 0xff
331 60 m 1
 333 60 336 60 339 60 c 0
 373 60 388 70 388 94 c 0xfe80
 388 110 381 124 355 124 c 0
 333 124 322 115 322 95 c 0
 322 82 326 69 331 60 c 1
EndSplineSet
EndChar

StartChar: uni0EC4
Encoding: 141 3780 45
Width: 492
GlyphClass: 2
Flags: W
HStem: 0 60<223.296 285.078> 124 62<222.85 286.197> 577 75<101 216.254> 618 69<211.146 329>
VStem: 49 83<652.279 803.406> 79 87<100.728 420.992> 172 50<99 120.969> 288 65<64.1208 122.343> 310 74<563.782 617.357>
LayerCount: 2
Fore
SplineSet
166 341 m 2xd680
 166 148 l 2
 166 128 168 112 172 99 c 1
 172 101 172 103 172 105 c 0
 172 156 210 186 255 186 c 0
 306 186 353 157 353 91 c 0xd7
 353 29 318 0 227 0 c 0
 131 0 79 55 79 157 c 2
 79 329 l 2
 79 426 92 469 179 509 c 0
 223 530 310 563 310 587 c 0xd680
 310 608 305 618 288 618 c 0xd3
 272 618 224 601 202 593 c 0
 174 583 158 577 130 577 c 0
 72 577 49 610 49 741 c 2
 49 776 l 2
 49 800 65 805 89 805 c 0
 114 805 132 804 132 776 c 2
 132 676 l 2
 132 660 133 652 144 652 c 0xeb
 167 652 202 674 237 678 c 0
 243 679 283 687 310 687 c 0
 348 687 384 651 384 590 c 0
 384 507 315 491 245 458 c 0
 183 429 166 413 166 341 c 2xd680
231 60 m 1
 233 60 236 60 239 60 c 0
 267 60 288 68 288 94 c 0
 288 111 279 124 255 124 c 0
 233 124 222 115 222 95 c 0
 222 82 226 69 231 60 c 1
EndSplineSet
EndChar

StartChar: uni0EC6
Encoding: 142 3782 46
Width: 627
GlyphClass: 2
Flags: W
HStem: -205 74<241.71 443.723> 261 62<141.511 213.273> 390 61<136.407 212.443> 495 64<145.28 243.003 395.955 479.136>
VStem: 50 84<329.973 386.613 443 486.766> 215 68<325.772 388.476> 499 79<-74.2687 477.124>
LayerCount: 2
Fore
SplineSet
174 261 m 0
 83 261 50 323 50 419 c 0
 50 492 104 559 179 559 c 0
 270 559 323 495 323 495 c 1
 323 495 369 559 442 559 c 0
 524 559 578 529 578 333 c 2
 578 73 l 2
 578 -157 477 -205 346 -205 c 0
 222 -205 175 -164 115 -108 c 0
 108 -102 105 -96 105 -91 c 0
 105 -76 136 -49 153 -49 c 0
 160 -49 165 -55 173 -62 c 0
 225 -103 261 -131 340 -131 c 0
 478 -131 499 -70 499 35 c 2
 499 343 l 2
 499 481 473 495 441 495 c 0
 393 495 376 429 323 429 c 0
 265 429 257 495 176 495 c 0
 154 495 141 474 136 443 c 1
 151 448 167 451 186 451 c 0
 243 451 283 416 283 354 c 0
 283 303 245 261 174 261 c 0
134 378 m 1
 134 345 146 323 178 323 c 0
 202 323 215 336 215 356 c 0
 215 373 208 390 182 390 c 0
 164 390 149 386 134 378 c 1
EndSplineSet
EndChar

StartChar: uni0EC8
Encoding: 143 3784 47
Width: 0
GlyphClass: 4
Flags: W
HStem: 607 219<-130.946 -61.0539>
VStem: -131 70<607.481 825.242>
AnchorPoint: "tone" -100 880 basemark 0
AnchorPoint: "tone" -100 580 mark 0
AnchorPoint: "udia" -100 600 mark 0
LayerCount: 2
Fore
SplineSet
-61 802 m 2
 -61 628 l 2
 -61 611 -69 607 -96 607 c 0
 -123 607 -131 611 -131 628 c 2
 -131 802 l 2
 -131 819 -123 826 -96 826 c 0
 -69 826 -61 819 -61 802 c 2
EndSplineSet
EndChar

StartChar: uni0EC9
Encoding: 144 3785 48
Width: 0
GlyphClass: 4
Flags: W
HStem: 633 56<-367 -237.609> 729 42<-449.693 -387.462> 825 45<-450.127 -385.355>
VStem: -502 51<772.744 823.975> -382 60<772.846 822.058> -211 76<718.339 852.141>
AnchorPoint: "tone" -310 880 basemark 0
AnchorPoint: "tone" -310 600 mark 0
AnchorPoint: "udia" -300 620 mark 0
LayerCount: 2
Fore
SplineSet
-211 825 m 0
 -211 844 -200 854 -172 854 c 0
 -145 854 -135 844 -135 825 c 0
 -135 694 -164 633 -337 633 c 2
 -482 633 l 2
 -508 633 -513 640 -513 667 c 0
 -513 701 -412 677 -387 738 c 1
 -398 733 -412 729 -426 729 c 0
 -474 729 -502 755 -502 797 c 0
 -502 837 -478 870 -421 870 c 0
 -359 870 -322 829 -322 772 c 0
 -322 723 -365 689 -367 689 c 2
 -344 689 l 2
 -218 689 -211 721 -211 825 c 0
-382 781 m 1
 -382 817 -394 825 -421 825 c 0
 -443 825 -451 813 -451 798 c 0
 -451 783 -442 771 -418 771 c 0
 -405 771 -392 776 -382 781 c 1
EndSplineSet
EndChar

StartChar: uni0ECA
Encoding: 145 3786 49
Width: 0
GlyphClass: 4
Flags: W
HStem: 728 67<-358.426 -296.586 -225.012 -164.107>
VStem: -426 67<664.7 726.673> -163 131<688.5 796.5> -82 50<742.149 809.625>
AnchorPoint: "tone" -230 840 basemark 0
AnchorPoint: "tone" -230 560 mark 0
AnchorPoint: "udia" -300 580 mark 0
LayerCount: 2
Fore
SplineSet
-261 741 m 1xe0
 -261 741 -239 795 -179 795 c 0
 -133 795 -107 773 -107 731 c 1
 -96 762 -89 798 -82 804 c 1xd0
 -79 808 -71 810 -61 810 c 0
 -43 810 -32 804 -32 789 c 0
 -32 700 -141 593 -196 593 c 0
 -213 593 -226 608 -226 622 c 0
 -226 628 -223 636 -218 640 c 0
 -185 666 -163 677 -163 700 c 0
 -163 716 -173 728 -189 728 c 0
 -207 728 -221 716 -230 699 c 0
 -240 681 -253 679 -261 679 c 0
 -267 679 -281 679 -292 699 c 0
 -301 715 -314 728 -333 728 c 0
 -349 728 -359 716 -359 700 c 0
 -359 673 -320 652 -303 638 c 0
 -298 635 -297 629 -297 623 c 0
 -297 609 -307 593 -327 593 c 0
 -376 593 -426 660 -426 709 c 0
 -426 762 -396 795 -338 795 c 0
 -273 795 -261 741 -261 741 c 1xe0
EndSplineSet
EndChar

StartChar: uni0ECB
Encoding: 146 3787 50
Width: 0
GlyphClass: 4
Flags: W
HStem: 686 62<-263.954 -186 -123 -44.5772>
VStem: -186 63<607.397 686 748 827.199>
AnchorPoint: "tone" -160 880 basemark 0
AnchorPoint: "tone" -160 580 mark 0
AnchorPoint: "udia" -200 600 mark 0
LayerCount: 2
Fore
SplineSet
-123 686 m 1
 -123 628 l 2
 -123 608 -139 607 -154 607 c 0
 -169 607 -186 608 -186 628 c 2
 -186 686 l 1
 -241 686 l 2
 -259 686 -265 704 -265 717 c 0
 -265 728 -262 748 -241 748 c 2
 -186 748 l 1
 -186 805 l 2
 -186 824 -169 828 -154 828 c 0
 -143 828 -123 826 -123 805 c 2
 -123 748 l 1
 -67 748 l 2
 -47 748 -44 732 -44 717 c 0
 -44 703 -47 686 -67 686 c 2
 -123 686 l 1
EndSplineSet
EndChar

StartChar: uni0ECC
Encoding: 147 3788 51
Width: 0
GlyphClass: 4
Flags: W
HStem: 621 49<-249.069 -196.097> 717 60<-144 -109.551> 726 51<-248.963 -195.629>
VStem: -304 54<670.859 725.233> -195 51<671.625 717>
AnchorPoint: "tone" -200 870 basemark 0
AnchorPoint: "tone" -200 600 mark 0
AnchorPoint: "udia" -220 600 mark 0
LayerCount: 2
Fore
SplineSet
-144 717 m 1xd8
 -144 705 l 1
 -144 657 -170 621 -224 621 c 0
 -257 621 -304 645 -304 698 c 0
 -304 751 -269 777 -222 777 c 1
 -169 777 l 1xb8
 -129 777 -120 788 -100 808 c 0
 -95 813 -90 815 -85 815 c 0
 -71 815 -48 792 -48 779 c 0
 -48 773 -50 769 -54 764 c 0
 -80 734 -101 717 -144 717 c 1xd8
-195 698 m 0
 -195 715 -209 726 -223 726 c 0
 -237 726 -250 715 -250 698 c 0
 -250 681 -237 670 -223 670 c 0
 -209 670 -195 681 -195 698 c 0
EndSplineSet
EndChar

StartChar: uni0ECD
Encoding: 148 3789 52
Width: 0
GlyphClass: 4
Flags: HW
HStem: 629 57<-299.513 -227.468> 765 56<-299.19 -227.673>
VStem: -362 58<690.89 759.478> -223 59<690.706 759.904>
AnchorPoint: "tone" -240 880 basemark 0
AnchorPoint: "cabove" -260 620 mark 0
LayerCount: 2
Fore
SplineSet
-263 765 m 0
 -285 765 -304 747 -304 725 c 0
 -304 703 -286 686 -264 686 c 0
 -241 686 -223 703 -223 725 c 0
 -223 747 -241 765 -263 765 c 0
-362 725 m 0
 -362 780 -318 821 -262 821 c 0
 -207 821 -164 781 -164 725 c 0
 -164 669 -207 629 -262 629 c 0
 -318 629 -362 671 -362 725 c 0
EndSplineSet
EndChar

StartChar: uni0ED0
Encoding: 149 3792 53
Width: 541
GlyphClass: 2
Flags: W
HStem: 0 64<190.735 351.047> 494 64<190.735 351.047>
VStem: 49 89<132.379 425.621> 404 89<132.379 425.621>
LayerCount: 2
Fore
SplineSet
493 279 m 0
 493 81 414 0 271 0 c 0
 128 0 49 81 49 279 c 0
 49 477 128 558 271 558 c 0
 414 558 493 477 493 279 c 0
404 279 m 0
 404 394 398 494 271 494 c 0
 143 494 138 394 138 279 c 0
 138 164 143 64 271 64 c 0
 398 64 404 164 404 279 c 0
EndSplineSet
EndChar

StartChar: uni0ED1
Encoding: 150 3793 54
Width: 597
GlyphClass: 2
Flags: W
HStem: 180 69<164.422 239.98> 366 57<236.227 308.779> 500 66<191.604 367.115>
VStem: 45 83<284.328 438.662> 169 65<302.35 364.511> 315 73<306.09 360.12> 458 90<211.692 402.527>
LayerCount: 2
Back
SplineSet
45 374 m 0
 45 503 163 566 274 566 c 0
 425 566 548 470 548 300 c 0
 548 144 427 48 281 -8 c 0
 268 -13 256 -15 245 -15 c 0
 229 -15 208 2 208 35 c 0
 208 52 215 63 236 70 c 0
 339 102 458 165 458 299 c 0
 458 394 412 500 276 500 c 0
 191 500 128 446 128 366 c 0
 128 353 130 339 133 325 c 1
 141 280 175 249 239 249 c 0
 240 249 240 249 241 249 c 1
 188 259 169 302 169 335 c 0
 169 386 200 423 270 423 c 0
 345 423 388 375 388 310 c 0
 388 226 307 180 229 180 c 0
 113 180 45 264 45 374 c 0
315 315 m 1
 315 353 294 366 269 366 c 0
 247 366 234 359 234 333 c 0
 234 311 244 301 269 301 c 0
 288 301 303 307 315 315 c 1
EndSplineSet
Fore
SplineSet
128 366 m 0
 128 274 175 249 239 249 c 0
 240 249 240 249 241 249 c 1
 188 259 169 302 169 335 c 0
 169 386 200 423 270 423 c 0
 345 423 388 375 388 310 c 0
 388 226 307 180 229 180 c 0
 113 180 45 264 45 374 c 0
 45 503 163 566 274 566 c 0
 425 566 548 470 548 300 c 0
 548 144 427 48 281 -8 c 0
 268 -13 256 -15 245 -15 c 0
 229 -15 208 2 208 35 c 0
 208 52 215 63 236 70 c 0
 339 102 458 165 458 299 c 0
 458 394 412 500 276 500 c 0
 191 500 128 445 128 366 c 0
315 315 m 1
 315 353 294 366 269 366 c 0
 247 366 234 359 234 333 c 0
 234 311 244 301 269 301 c 0
 288 301 303 307 315 315 c 1
EndSplineSet
EndChar

StartChar: uni0ED2
Encoding: 151 3794 55
Width: 635
GlyphClass: 2
Flags: W
HStem: 0 68<215.718 420.144> 89 60<401.811 422> 213 59<401.254 466.431>
VStem: 39 94<160.898 358.138> 333 67<151.157 211.063> 472 75<151.89 207.974>
LayerCount: 2
Fore
SplineSet
541 724 m 0
 560 724 589 691 589 672 c 0
 589 663 586 656 579 649 c 0
 416 488 133 484 133 271 c 0
 133 136 204 68 301 68 c 0
 348 68 391 75 422 89 c 1
 365 89 333 128 333 179 c 0
 333 234 362 272 436 272 c 0
 512 272 547 229 547 157 c 0
 547 47 434 0 293 0 c 0
 112 0 39 130 39 268 c 0
 39 543 323 549 514 710 c 0
 523 718 531 724 541 724 c 0
472 161 m 1
 472 202 454 213 434 213 c 0
 413 213 400 206 400 182 c 0
 400 162 409 149 435 149 c 0
 446 149 460 154 472 161 c 1
EndSplineSet
EndChar

StartChar: uni0ED3
Encoding: 152 3795 56
Width: 765
GlyphClass: 2
Flags: W
HStem: 0 64<120.614 186.036 385.539 569.642> 134 61<118.789 184.805> 651 78<556.649 683.5> 721 70<379.624 484.588>
VStem: 49 68<69.5351 132.558> 188 54<87.4574 130.434> 250 88<114.488 556.693> 303 76<665.702 719.685> 613 87<113.258 496.519>
DStem2: 413 660 415 579 0.924814 -0.38042<-42.9636 245.144>
LayerCount: 2
Fore
SplineSet
613 414 m 2xde80
 613 476 602 503 556 521 c 2
 415 579 l 2
 358 603 303 615 303 696 c 0
 303 753 336 786 371 790 c 0
 376 791 382 791 388 791 c 0xdd80
 414 791 443 785 449 784 c 0
 498 773 577 729 621 729 c 0
 656 729 625 786 676 794 c 1
 682 798 689 799 696 799 c 0
 701 799 706 799 711 797 c 1
 727 794 731 782 731 769 c 0
 731 694 710 651 657 651 c 0xed80
 618 651 583 664 556 673 c 0
 518 685 439 721 405 721 c 1
 389 721 379 712 379 691 c 0xdd80
 379 676 391 670 413 660 c 1
 437 651 458 642 478 634 c 0
 681 551 700 547 700 381 c 2
 700 214 l 2
 700 28 593 0 477 0 c 0
 411 0 342 9 300 64 c 1
 282 33 243 12 205 6 c 1
 188 2 169 0 151 0 c 0
 80 0 49 50 49 100 c 0
 49 164 89 195 152 195 c 0
 200 195 242 166 242 119 c 0
 242 109 241 98 237 87 c 1
 248 101 250 121 250 146 c 2
 250 523 l 2
 250 553 266 559 294 559 c 0
 319 559 338 556 338 523 c 2
 338 215 l 2
 338 95 387 64 478 64 c 0
 570 64 613 94 613 214 c 2
 613 414 l 2xde80
178 65 m 1
 184 75 188 88 188 98 c 0
 188 118 173 134 151 134 c 0
 127 134 117 120 117 101 c 0
 117 80 131 65 163 65 c 0
 168 65 173 65 178 65 c 1
EndSplineSet
EndChar

StartChar: uni0ED4
Encoding: 153 3796 57
Width: 660
GlyphClass: 2
Flags: W
HStem: 0 62<167.257 306.402 462.531 525.054> 129 61<459.539 524.67> 224 61<459.562 524.289> 354 60<462.568 524.962>
VStem: 49 88<91.6744 380.031> 371 88<112.938 127.491 183 230 286.593 350.684> 527 65<63.7555 126.182 287.944 351.027>
DStem2: 173 499 225 435 0.926983 0.375105<-52.9213 337.269>
LayerCount: 2
Back
SplineSet
588 653 m 0
 530 596 510 549 399 506 c 1
 225 435 l 2
 140 400 137 349 137 182 c 0
 137 115 150 64 233 64 c 0
 290 64 332 96 371 127 c 1
 371 130 371 132 371 135 c 2
 371 267 l 2
 371 281 372 295 375 308 c 1
 383 372 420 414 493 414 c 0
 548 414 592 376 592 321 c 0
 592 270 555 224 495 224 c 0
 483 224 471 226 459 230 c 1
 459 183 l 1
 471 187 484 190 497 190 c 0
 561 190 592 140 592 97 c 0
 592 49 559 0 490 0 c 0
 438 0 404 19 386 57 c 1
 347 27 297 0 230 0 c 0
 109 0 49 65 49 180 c 0
 49 372 53 452 173 499 c 0
 244 527 323 557 388 586 c 0
 469 622 486 662 535 703 c 1
 559 727 589 697 593 673 c 0
 594 666 593 659 588 653 c 0
459 117 m 1
 459 91 461 63 490 62 c 0
 499 61 507 63 514 69 c 1
 522 74 527 84 527 95 c 0
 527 112 515 129 491 129 c 0
 481 129 470 124 459 117 c 1
459 293 m 1
 471 289 483 285 494 285 c 0
 507 285 527 295 527 320 c 0
 527 342 510 354 494 354 c 0
 469 354 459 333 459 321 c 2
 459 293 l 1
EndSplineSet
Fore
SplineSet
371 129 m 9
 371 267 l 2
 371 310 379 414 493 414 c 0
 548 414 592 376 592 321 c 0
 592 270 555 224 495 224 c 0
 483 224 471 226 459 230 c 1
 459 183 l 1
 471 187 484 190 497 190 c 0
 561 190 592 140 592 97 c 0
 592 49 559 0 490 0 c 0
 438 0 404 19 386 57 c 1
 347 27 297 0 230 0 c 0
 109 0 49 65 49 180 c 0
 49 372 53 452 173 499 c 2
 388 586 l 2
 470 619 486 662 535 703 c 1
 541 709 548 712 554 712 c 0
 573 712 593 689 593 668 c 0
 593 663 592 658 588 653 c 0
 530 596 509 551 399 506 c 2
 225 435 l 2
 140 400 137 349 137 182 c 0
 137 115 150 64 233 64 c 0
 290 64 332 98 371 129 c 9
494 62 m 0
 520 62 527 84 527 95 c 0
 527 112 515 129 491 129 c 0
 481 129 470 124 459 117 c 1
 459 81 465 62 494 62 c 0
459 293 m 1
 471 289 483 285 494 285 c 0
 507 285 527 295 527 320 c 0
 527 342 510 354 494 354 c 0
 469 354 459 333 459 321 c 2
 459 293 l 1
EndSplineSet
EndChar

StartChar: uni0ED5
Encoding: 154 3797 58
Width: 660
GlyphClass: 2
Flags: W
HStem: 0 65<162.325 310.474 462.151 525.507> 129 61<459.539 524.67> 224 61<459.562 524.289> 354 60<461.438 523.989> 603 57<199.035 263.829>
VStem: 49 89<91.1882 384.038> 129 67<532.411 600.013> 265 67<559.358 600.248> 371 88<112.662 127.491 183 230 286.593 351.562> 527 65<64.7492 126.182 287.944 351.027>
LayerCount: 2
Fore
SplineSet
224 65 m 1xfdc0
 292 65 330 97 371 129 c 1
 371 132 371 132 371 135 c 2
 371 267 l 2
 371 281 372 295 375 308 c 1
 383 372 420 414 493 414 c 0
 549 414 592 376 592 321 c 0
 592 270 555 224 495 224 c 0
 483 224 471 226 459 230 c 1
 459 183 l 1
 471 187 484 190 497 190 c 0
 561 190 592 140 592 97 c 0
 592 48 559 0 490 0 c 0
 438 0 404 19 386 57 c 1
 347 27 297 0 230 0 c 0
 79 0 49 92 49 231 c 0xfdc0
 49 384 62 452 171 497 c 1
 146 513 129 537 129 573 c 0xfbc0
 129 623 171 660 220 660 c 0
 236 660 252 659 265 656 c 0
 314 646 332 609 332 573 c 0
 332 568 332 564 331 559 c 1
 429 593 468 631 509 676 c 1
 535 700 l 1
 541 704 547 706 553 706 c 0
 576 706 597 683 597 665 c 1
 595 650 566 625 555 614 c 0
 524 580 497 550 438 522 c 0
 400 503 334 473 280 473 c 1
 261 455 240 441 224 435 c 0
 139 402 138 348 138 181 c 0
 138 118 149 65 224 65 c 1xfdc0
250 530 m 1
 259 541 265 555 265 575 c 0
 265 588 249 603 232 603 c 0
 210 603 196 586 196 570 c 0xfbc0
 196 549 211 528 236 528 c 0
 240 528 245 529 250 530 c 1
459 117 m 1
 459 91 461 62 490 62 c 0
 499 62 507 63 514 69 c 1
 522 74 527 84 527 95 c 0
 527 112 515 129 491 129 c 0
 481 129 470 124 459 117 c 1
459 293 m 1
 471 289 483 285 494 285 c 0
 507 285 527 295 527 320 c 0
 527 342 510 354 494 354 c 0
 469 354 459 333 459 321 c 2
 459 293 l 1
EndSplineSet
EndChar

StartChar: uni0ED6
Encoding: 155 3798 59
Width: 667
GlyphClass: 2
Flags: W
HStem: 0 64<155.918 256.067 393.531 486.016> 368 61<137 201.069> 498 61<143.146 201.307> 643 159<539.613 601.75> 709 67<281.38 382.115>
VStem: 49 88<84.6255 374 429.775 495.251> 204 77<652.928 708.647> 204 66<432.183 495.341> 277 88<96.0732 269.044> 504 88<82.5931 483.477> 536 82<721.484 799.516>
LayerCount: 2
Fore
SplineSet
592 402 m 2xee40
 592 230 l 2
 592 50 544 0 447 0 c 0
 390 0 345 20 324 94 c 1
 305 20 253 0 196 0 c 0
 95 0 49 55 49 213 c 2
 49 383 l 2
 49 473 64 559 171 559 c 0
 226 559 270 520 270 466 c 0
 270 414 236 368 173 368 c 0
 161 368 149 370 137 374 c 1
 137 194 l 2
 137 112 144 64 204 64 c 0
 272 64 277 118 277 219 c 0
 277 270 298 272 323 272 c 0
 347 272 365 270 365 219 c 0xedc0
 365 110 389 64 441 64 c 0
 485 64 504 86 504 194 c 2
 504 426 l 2
 504 511 421 528 317 567 c 1
 257 591 204 599 204 686 c 0
 204 743 238 771 274 775 c 1
 280 776 286 776 293 776 c 0xee40
 318 776 346 770 352 770 c 1
 411 756 496 719 517 719 c 0
 534 719 536 724 536 741 c 2
 536 767 l 2
 536 796 554 802 579 802 c 0
 605 802 618 792 618 767 c 2
 618 741 l 2
 618 667 596 643 554 643 c 0xf620
 481 643 345 709 305 709 c 0
 289 709 281 702 281 681 c 0
 281 666 293 656 315 646 c 1
 521 570 592 552 592 402 c 2xee40
137 435 m 1
 148 431 160 429 171 429 c 0
 184 429 204 439 204 464 c 0
 204 486 187 498 172 498 c 0
 148 498 137 477 137 435 c 1
EndSplineSet
EndChar

StartChar: uni0ED7
Encoding: 156 3799 60
Width: 694
GlyphClass: 2
Flags: W
HStem: 0 62<121.388 179.847> 129 61<121.91 185.437> 369 61<121.242 185.461> 494 64<121.104 183.467 345.355 497.303>
VStem: 53 66<63.457 127.053 432.326 492.501> 186 88<64.64 127.407 184 374 431.798 440.54> 532 87<-79.8438 458.122>
LayerCount: 2
Fore
SplineSet
532 55 m 2
 532 376 l 2
 532 439 513 494 425 494 c 0
 364 494 318 458 273 425 c 1
 273 415 274 405 274 394 c 2
 274 136 l 2
 274 59 239 0 152 0 c 0
 97 0 53 38 53 92 c 0
 53 144 89 190 149 190 c 0
 161 190 174 188 186 184 c 1
 186 374 l 1
 175 371 163 369 151 369 c 0
 96 369 53 407 53 466 c 0
 53 520 95 558 153 558 c 0
 206 558 240 536 258 494 c 1
 301 526 356 559 427 559 c 0
 555 559 619 502 619 341 c 2
 619 99 l 2
 619 -6 644 -72 644 -108 c 0
 644 -127 631 -140 590 -140 c 0
 577 -140 565 -136 559 -115 c 1
 555 -107 532 -29 532 55 c 2
186 442 m 1
 186 457 l 2
 186 478 177 494 152 494 c 0
 130 494 119 481 119 464 c 0
 119 446 131 430 153 430 c 0
 163 430 174 435 186 442 c 1
186 121 m 1
 174 125 162 129 151 129 c 0
 138 129 119 119 119 94 c 0
 119 72 135 62 151 62 c 0
 174 62 186 78 186 121 c 1
EndSplineSet
EndChar

StartChar: uni0ED8
Encoding: 157 3800 61
Width: 731
GlyphClass: 2
Flags: W
HStem: -290 58<511.131 581.54> -286 70<179.851 274.755> 0 62<139.032 201.114> 129 61<137.54 200.59> 494 65<159.747 231.047 427.198 497.057>
VStem: 49 88<65.2588 127.636 184 470.347> 104 74<-213.789 -154.447> 203 67<63.356 127.053> 444 64<-228.265 -194.189> 519 89<79 473.169> 585 56<-226.171 -164.998>
DStem2: 253 -51 287 -114 0.93859 0.345034<-110.311 244.958 378.054 408.229>
LayerCount: 2
Back
SplineSet
544 -111 m 1x79a0
 599 -119 641 -140 641 -198 c 0
 641 -251 599 -290 547 -290 c 0xb990
 497 -290 444 -256 444 -194 c 1
 395 -215 332 -251 291 -265 c 1
 260 -278 232 -286 203 -286 c 0
 149 -286 104 -245 104 -188 c 0
 104 -104 176 -79 253 -51 c 2
 519 47 l 1x7ba0
 519 344 l 2
 519 428 510 474 479 489 c 1
 472 492 466 494 460 494 c 0
 433 494 418 460 410 433 c 0
 397 389 383 339 351 316 c 1
 341 308 332 305 322 305 c 0
 298 305 278 328 270 356 c 1
 254 418 243 494 203 494 c 0
 150 494 137 445 137 344 c 2
 137 184 l 1
 149 188 162 190 174 190 c 0
 234 190 270 144 270 92 c 0
 270 38 226 0 171 0 c 0
 65 0 49 83 49 173 c 2
 49 338 l 2
 49 521 110 559 195 559 c 0
 299 559 302 475 326 394 c 1
 348 475 358 558 451 558 c 0
 458 558 464 557 470 557 c 0
 490 557 l 0
 563 549 608 499 608 338 c 2
 608 296 l 2x7dc0
 608 278 596 161 596 75 c 1
 642 92 l 1
 660 25 l 1
 591 0 l 1
 591 -17 l 1
 544 -111 l 1x79a0
137 121 m 1x3d80
 137 93 l 2
 137 81 147 62 172 62 c 0
 187 62 203 72 203 94 c 0
 203 119 184 129 171 129 c 0
 160 129 148 125 137 121 c 1x3d80
458 -124 m 1
 461 -117 465 -112 469 -106 c 2
 507 -32 l 1
 287 -114 l 2
 239 -131 178 -152 178 -187 c 0
 178 -202 187 -216 215 -216 c 0x7b80
 222 -216 233 -211 244 -207 c 0
 297 -186 386 -144 458 -124 c 1
551 -162 m 1
 538 -164 527 -166 515 -169 c 1
 511 -177 508 -187 508 -197 c 0
 508 -221 527 -232 546 -232 c 0
 565 -232 585 -217 585 -196 c 1xb990
 583 -178 568 -162 551 -162 c 1
EndSplineSet
Fore
SplineSet
327 305 m 0x7bc0
 275 305 265 374 249 429 c 0
 239 465 227 494 203 494 c 0
 150 494 137 445 137 344 c 2
 137 184 l 1
 149 188 162 190 174 190 c 0
 234 190 270 144 270 92 c 0
 270 38 226 0 171 0 c 0
 65 0 49 83 49 173 c 2
 49 338 l 2
 49 521 110 559 195 559 c 0
 299 559 302 475 326 394 c 1
 350 481 356 558 465 558 c 0
 565 558 608 497 608 338 c 2
 608 79 l 17x7dc0
 642 92 l 1
 660 25 l 1
 591 0 l 1
 544 -111 l 1
 599 -119 641 -140 641 -198 c 0
 641 -251 599 -290 547 -290 c 0xb9a0
 497 -290 444 -256 444 -194 c 1
 395 -215 332 -251 291 -265 c 1
 260 -278 232 -286 203 -286 c 0
 149 -286 104 -245 104 -188 c 0
 104 -104 176 -79 253 -51 c 2
 519 47 l 1
 519 344 l 2
 519 428 510 494 460 494 c 0
 431 494 418 462 410 435 c 0
 397 391 383 305 327 305 c 0x7bc0
137 121 m 1
 137 93 l 2
 137 81 147 62 172 62 c 0
 187 62 203 72 203 94 c 0
 203 119 184 129 171 129 c 0
 160 129 148 125 137 121 c 1
458 -124 m 1
 461 -117 465 -112 469 -106 c 2
 507 -32 l 1
 287 -114 l 2
 239 -131 178 -152 178 -187 c 0x7b80
 178 -202 187 -216 215 -216 c 0
 222 -216 233 -211 244 -207 c 0
 297 -186 386 -144 458 -124 c 1
551 -162 m 1
 538 -164 527 -166 515 -169 c 1
 511 -177 508 -187 508 -197 c 0
 508 -221 527 -232 546 -232 c 0
 565 -232 585 -217 585 -196 c 1xb9a0
 583 -178 568 -162 551 -162 c 1
EndSplineSet
EndChar

StartChar: uni0ED9
Encoding: 158 3801 62
Width: 695
GlyphClass: 2
Flags: W
HStem: 0 62<139.746 201.114 439.017 536.202> 129 61<137.54 200.59> 494 65<169.996 302.956>
VStem: 49 88<66.4057 127.636 184 458.31> 203 67<64.2934 127.053> 328 89<83.7754 466.507> 559 88<88.4141 557.077>
LayerCount: 2
Fore
SplineSet
247 494 m 0
 161 494 137 461 137 343 c 2
 137 184 l 1
 149 188 162 190 174 190 c 0
 234 190 270 144 270 92 c 0
 270 37 226 0 171 0 c 0
 84 0 49 59 49 180 c 2
 49 346 l 2
 49 521 133 559 245 559 c 0
 353 559 417 527 417 318 c 2
 417 179 l 2
 417 116 425 64 488 64 c 0
 559 64 559 133 559 229 c 2
 559 523 l 2
 559 556 578 559 603 559 c 0
 632 559 647 554 647 523 c 2
 647 208 l 2
 647 57 602 0 488 0 c 0
 399 0 328 35 328 182 c 2
 328 342 l 2
 328 435 324 494 247 494 c 0
137 121 m 1
 137 93 l 2
 137 81 147 62 172 62 c 0
 187 62 203 72 203 94 c 0
 203 119 184 129 171 129 c 0
 160 129 148 125 137 121 c 1
EndSplineSet
EndChar

StartChar: uni0EDC
Encoding: 159 3804 63
Width: 1094
GlyphClass: 2
Flags: W
HStem: 0 64<214 377.472 516.557 621.428 781.054 925.451> 374 61<116.668 157.576 352.217 419.368> 500 59<116.045 175.744 352.925 413.739 563.34 637.051>
VStem: 49 65<437.035 498.532> 85 89<102.688 264.085> 179 84<443.281 497.912> 283 68<436.862 498.582> 420 89<108.745 381 438.417 452.519> 657 89<102.625 479.338> 959 86<98.461 557.181>
AnchorPoint: "ldia" 855 0 basechar 0
AnchorPoint: "cbelow" 885 0 basechar 0
AnchorPoint: "udia" 600 600 basechar 0
AnchorPoint: "cabove" 690 600 basechar 0
LayerCount: 2
Back
SplineSet
746 214 m 2xefc0
 746 96 779 64 854 64 c 0
 934 64 959 101 959 209 c 2
 959 525 l 2
 959 556 977 559 1002 559 c 0
 1031 559 1045 554 1045 525 c 2
 1045 210 l 2
 1045 47 962 0 853 0 c 0
 784 0 726 23 703 87 c 1
 685 25 625 0 541 0 c 0
 527 0 516 2 516 29 c 0
 516 60 522 66 539 66 c 0
 647 66 657 108 657 233 c 2
 657 335 l 2
 657 342 657 349 657 356 c 0
 657 420 655 494 605 494 c 0
 575 494 544 466 509 437 c 1
 509 434 509 431 509 428 c 2
 509 211 l 2
 509 67 430 0 307 0 c 0
 205 0 85 32 85 179 c 0xefc0
 85 265 130 320 158 378 c 1
 153 377 147 378 142 378 c 0
 91 378 49 413 49 469 c 0xf7c0
 49 526 86 559 150 559 c 0
 219 559 263 510 263 452 c 0
 263 353 174 273 174 178 c 0
 174 93 222 64 307 64 c 0
 379 64 420 104 420 208 c 1
 420 381 l 1
 407 376 393 374 379 374 c 0
 325 374 283 407 283 466 c 0
 283 518 310 559 386 559 c 0
 433 559 467 538 488 505 c 1
 523 533 562 558 603 558 c 0
 701 558 746 499 746 342 c 2
 746 214 l 2xefc0
420 450 m 1
 420 477 408 500 383 500 c 0
 362 500 351 490 351 468 c 0
 351 446 361 436 382 436 c 0
 394 436 406 441 420 450 c 1
179 443 m 1
 180 449 179 455 179 461 c 0
 179 490 165 500 147 500 c 0
 131 500 114 492 114 469 c 0xf7c0
 114 445 130 436 146 436 c 0
 157 436 169 439 179 443 c 1
EndSplineSet
Fore
SplineSet
509 435 m 9xefc0
 509 211 l 2
 509 67 430 0 307 0 c 0
 205 0 85 32 85 179 c 0xefc0
 85 265 130 320 158 378 c 1
 153 377 147 378 142 378 c 0
 91 378 49 413 49 469 c 0xf7c0
 49 526 86 559 150 559 c 0
 219 559 263 510 263 452 c 0
 263 353 174 273 174 178 c 0
 174 93 222 64 307 64 c 0
 379 64 420 104 420 208 c 1
 420 381 l 1
 407 376 393 374 379 374 c 0
 325 374 283 407 283 466 c 0
 283 518 310 559 386 559 c 0
 433 559 467 538 488 505 c 1
 523 533 562 558 603 558 c 0
 701 558 746 499 746 342 c 2
 746 214 l 2
 746 96 779 64 854 64 c 0
 934 64 959 101 959 209 c 2
 959 525 l 2
 959 556 977 559 1002 559 c 0
 1031 559 1045 554 1045 525 c 2
 1045 210 l 2
 1045 47 962 0 853 0 c 0
 784 0 726 23 703 87 c 1
 685 25 625 0 541 0 c 0
 527 0 516 2 516 29 c 0
 516 60 522 66 539 66 c 0
 647 66 657 108 657 233 c 2
 657 335 l 0
 657 430 655 494 605 494 c 0
 575 494 544 464 509 435 c 9xefc0
420 450 m 1
 420 477 408 500 383 500 c 0
 362 500 351 490 351 468 c 0
 351 446 361 435 382 435 c 0
 394 435 406 441 420 450 c 1
179 443 m 1
 180 449 179 455 179 461 c 0
 179 490 165 500 147 500 c 0
 131 500 114 492 114 469 c 0xf7c0
 114 445 130 435 146 435 c 0
 157 435 169 439 179 443 c 1
EndSplineSet
EndChar

StartChar: uni0EDD
Encoding: 160 3805 64
Width: 1118
GlyphClass: 2
Flags: W
HStem: 0 64<214.198 377.257 606.466 669.162 805.238 943.443> 129 61<607.875 671.484> 374 61<116.668 157.576 352.217 419.367> 500 59<116.045 175.744 352.925 413.727 585.465 658.688>
VStem: 49 65<437.035 498.532> 85 89<102.471 264.085> 179 84<443.281 497.912> 283 68<436.862 498.582> 420 89<108.322 378> 539 66<62.7031 126.067> 672 88<101.892 126.995 183 487.121> 966 88<86.5822 555.065>
AnchorPoint: "ldia" 855 0 basechar 0
AnchorPoint: "cbelow" 885 0 basechar 0
AnchorPoint: "udia" 600 600 basechar 0
AnchorPoint: "cabove" 690 600 basechar 0
LayerCount: 2
Fore
SplineSet
639 129 m 0xf3f0
 619 129 605 113 605 95 c 0
 605 77 615 60 641 60 c 0
 658 60 672 76 672 102 c 2
 672 114 l 1
 661 123 650 129 639 129 c 0xf3f0
741 51 m 1
 721 17 687 0 639 0 c 0
 584 0 539 35 539 103 c 0
 539 132 571 190 637 190 c 0
 649 190 661 187 672 183 c 1
 672 435 l 2
 672 488 641 494 625 494 c 0
 597 494 557 457 509 424 c 1
 509 211 l 2
 509 67 430 0 307 0 c 0
 205 0 85 32 85 179 c 0xf7f0
 85 265 130 320 158 378 c 1
 153 377 147 378 142 378 c 0
 91 378 49 413 49 469 c 0xfbf0
 49 526 86 559 150 559 c 0
 219 559 263 510 263 452 c 0
 263 353 174 273 174 178 c 0xf7f0
 174 92 223 64 307 64 c 0
 378 64 420 103 420 208 c 1
 420 378 l 1
 407 374 393 374 379 374 c 0
 325 374 283 407 283 466 c 0
 283 518 310 559 386 559 c 0
 436 559 473 534 493 497 c 1
 537 528 586 559 631 559 c 0
 729 559 760 500 760 409 c 2
 760 135 l 2
 760 130 760 124 760 119 c 1
 794 90 830 64 877 64 c 0
 951 64 966 99 966 180 c 2
 966 526 l 2
 966 557 992 557 1011 557 c 2
 1014 557 l 2
 1036 557 1054 555 1054 526 c 2
 1054 206 l 2
 1054 80 1013 0 884 0 c 0
 820 0 775 24 741 51 c 1
420 449 m 1
 420 476 409 500 383 500 c 0
 362 500 351 490 351 468 c 0
 351 446 361 435 382 435 c 0
 393 435 406 441 420 449 c 1
179 443 m 1
 180 449 179 455 179 461 c 0
 179 490 165 500 147 500 c 0
 131 500 114 492 114 469 c 0xfbf0
 114 445 130 435 146 435 c 0
 157 435 169 439 179 443 c 1
EndSplineSet
EndChar

StartChar: uni0E81
Encoding: 161 3713 65
Width: 668
GlyphClass: 2
Flags: W
HStem: 0 62<117.388 178.241> 129 61<117.964 181.46> 369 61<117.242 181.461> 498 61<117.648 178.245 350.831 492.563>
VStem: 49 66<63.457 125.817 432.326 495.477> 182 88<65.0529 127.636 184 374 431.798 440.54> 532 88<1.40991 458.125>
AnchorPoint: "ldia" 490 0 basechar 0
AnchorPoint: "cbelow" 480 0 basechar 0
AnchorPoint: "udia" 300 600 basechar 0
AnchorPoint: "cabove" 390 600 basechar 0
LayerCount: 2
Fore
SplineSet
257 498 m 1
 301 529 356 559 426 559 c 0
 555 559 620 498 620 337 c 2
 620 33 l 2
 620 2 605 0 577 0 c 0
 552 0 532 0 532 33 c 2
 532 375 l 2
 532 438 513 494 425 494 c 0
 363 494 316 458 270 425 c 1
 270 179 l 2
 270 88 257 0 148 0 c 0
 93 0 49 38 49 92 c 0
 49 144 85 190 145 190 c 0
 157 190 170 188 182 184 c 1
 182 374 l 1
 171 371 159 369 147 369 c 0
 92 369 49 407 49 466 c 0
 49 520 91 559 149 559 c 0
 198 559 238 540 257 498 c 1
182 442 m 1
 182 457 l 2
 182 478 173 498 148 498 c 0
 126 498 115 481 115 464 c 0
 115 446 127 430 149 430 c 0
 159 430 170 435 182 442 c 1
182 121 m 1
 171 125 159 129 148 129 c 0
 135 129 115 119 115 94 c 0
 115 72 131 62 147 62 c 0
 172 62 182 81 182 93 c 2
 182 121 l 1
EndSplineSet
EndChar

StartChar: exclam
Encoding: 3 33 67
Width: 237
GlyphClass: 2
Flags: W
HStem: -16 124<71.0601 166.94>
VStem: 55 128<0.191101 91.8089> 79 80<401.12 788.713>
LayerCount: 2
Fore
SplineSet
119 794 m 0xa0
 162 794 159 737 159 642 c 0
 158 504 151 374 138 262 c 0
 130 191 128 182 119 182 c 0
 109 182 107 191 100 263 c 1
 86 374 80 504 79 642 c 0
 79 744 78 794 119 794 c 0xa0
183 46 m 0xc0
 183 12 153 -16 119 -16 c 0
 85 -16 55 12 55 46 c 0
 55 80 85 108 119 108 c 0
 153 108 183 80 183 46 c 0xc0
EndSplineSet
EndChar

StartChar: quotedbl
Encoding: 4 34 68
Width: 406
GlyphClass: 2
Flags: W
HStem: 377 251<81 139 263.718 323>
VStem: 81 58<377 460.667> 264 59<377 460.667>
LayerCount: 2
Fore
SplineSet
160 628 m 1
 139 377 l 1
 81 377 l 1
 60 628 l 1
 160 628 l 1
344 628 m 1
 323 377 l 1
 264 377 l 1
 258 461 251 545 244 628 c 1
 344 628 l 1
EndSplineSet
EndChar

StartChar: numbersign
Encoding: 5 35 69
Width: 515
GlyphClass: 2
Flags: W
HStem: 101 63<54 127 197 296 366 461> 270 62<54 147 218 316 387 461>
VStem: 110 62<-28 34> 175 62<415 477> 279 62<-28 34> 344 62<415 477>
DStem2: 110 -28 172 -28 0.12766 0.991818<7.9149 130.115 201.535 300.285 370.842 509.166> 279 -28 341 -28 0.12766 0.991818<7.9149 130.115 201.535 300.285 370.842 509.166>
LayerCount: 2
Fore
SplineSet
316 270 m 1
 210 270 l 1
 205 235 201 199 197 164 c 1
 303 164 l 1
 308 199 312 235 316 270 c 1
461 101 m 1
 358 101 l 1
 352 58 347 16 341 -28 c 1
 279 -28 l 1
 284 16 290 58 296 101 c 1
 189 101 l 1
 183 58 178 16 172 -28 c 1
 110 -28 l 1
 115 16 121 58 127 101 c 1
 54 101 l 1
 54 164 l 1
 135 164 l 1
 147 270 l 1
 54 270 l 1
 54 332 l 1
 156 332 l 1
 162 380 168 429 175 477 c 1
 237 477 l 1
 231 429 225 380 218 332 c 1
 325 332 l 1
 331 380 337 429 344 477 c 1
 406 477 l 1
 399 429 393 380 387 332 c 1
 461 332 l 1
 461 270 l 1
 378 270 l 1
 366 164 l 1
 461 164 l 1
 461 101 l 1
EndSplineSet
EndChar

StartChar: dollar
Encoding: 6 36 70
Width: 489
GlyphClass: 2
Flags: W
HStem: -12 81<157.73 224 268 338.766> 544 81<155.653 224 268 325.836>
VStem: 29 94<104.547 185> 39 93<395.575 521.711> 224 44<-91 -14 69 271 368 544 626 691> 342 94<454 527.7> 366 93<96.929 235.304>
LayerCount: 2
Fore
SplineSet
366 164 m 0xca
 366 246 326 256 268 271 c 1
 268 69 l 1
 331 71 366 95 366 164 c 0xca
224 368 m 1
 224 544 l 1
 140 541 132 501 132 453 c 0xd8
 132 389 165 386 224 368 c 1
459 171 m 0xca
 459 43 365 -5 268 -12 c 1
 268 -91 l 1
 224 -91 l 1
 224 -14 l 1
 94 -11 29 67 29 185 c 1
 123 185 l 1xea
 123 121 147 69 224 67 c 1
 224 277 l 1
 123 305 39 326 39 452 c 0
 39 551 110 625 224 625 c 1
 224 691 l 1
 268 691 l 1
 268 626 l 1
 382 626 436 547 436 454 c 1
 342 454 l 1xdc
 342 520 323 543 268 545 c 1
 268 357 l 1
 337 340 459 326 459 171 c 0xca
EndSplineSet
EndChar

StartChar: percent
Encoding: 7 37 71
Width: 644
GlyphClass: 2
Flags: W
HStem: -35 56<438.306 533.685> 157 57<438.306 533.685> 206 56<110.198 204.334> 397 57<110.017 205.712>
VStem: 34 57<281.119 378.653> 224 58<281.119 378.099> 363 56<39.553 137.969> 553 56<40.1188 137.409>
DStem2: 118 -26 165 -66 0.578062 0.815993<0 620.76>
LayerCount: 2
Fore
SplineSet
553 89 m 0xdf
 553 126 521 157 487 157 c 0
 448 157 419 126 419 89 c 0
 419 53 448 21 487 21 c 0
 521 21 553 53 553 89 c 0xdf
224 330 m 0
 224 366 193 397 159 397 c 0
 120 397 91 366 91 330 c 0
 91 294 121 262 159 262 c 0xbf
 193 262 224 294 224 330 c 0
609 89 m 0
 609 25 552 -35 487 -35 c 0
 420 -35 363 25 363 89 c 0
 363 156 420 214 487 214 c 0xdf
 552 214 609 156 609 89 c 0
282 330 m 0
 282 266 225 206 159 206 c 0xbf
 91 206 34 266 34 330 c 0
 34 398 91 454 159 454 c 0
 225 454 282 398 282 330 c 0
527 445 m 1
 165 -66 l 1
 118 -26 l 1
 476 484 l 1
 493 471 510 458 527 445 c 1
EndSplineSet
EndChar

StartChar: ampersand
Encoding: 8 38 72
Width: 670
GlyphClass: 2
Flags: W
HStem: -12 77<205.269 381.914> 0 21G<512.931 663> 571 69<225.647 341.213>
VStem: 50 95<124.411 252.261> 116 91<444.484 553.447> 361 79<459.842 550.782> 477 96<190.134 352>
LayerCount: 2
Fore
SplineSet
419 113 m 1xb6
 349 175 285 245 229 310 c 1
 184 293 145 234 145 183 c 0
 145 135 195 68 266 65 c 1
 331 65 377 74 419 113 c 1xb6
361 510 m 0
 361 542 325 571 287 571 c 0
 231 571 207 540 207 506 c 0x2e
 207 475 227 441 260 401 c 1
 315 426 361 469 361 510 c 0
663 0 m 1x6e
 535 0 l 1x6e
 471 58 l 1
 425 20 354 -12 270 -12 c 0
 154 -12 50 59 50 178 c 0xb6
 50 279 110 329 186 364 c 1
 146 404 116 453 116 503 c 0
 116 587 191 640 277 640 c 0
 367 640 440 596 440 520 c 0
 440 431 361 387 305 353 c 1
 353 293 406 239 464 183 c 1
 483 237 483 289 477 352 c 1
 573 352 l 1
 573 266 560 193 525 124 c 1
 547 95 619 32 663 0 c 1x6e
EndSplineSet
EndChar

StartChar: quotesingle
Encoding: 9 39 73
Width: 327
GlyphClass: 2
Flags: W
HStem: 377 251<133.672 193.282>
VStem: 134 59<377 600.731>
LayerCount: 2
Fore
SplineSet
213 628 m 1
 206 545 199 461 193 377 c 1
 134 377 l 1
 127 461 120 545 114 628 c 1
 213 628 l 1
EndSplineSet
EndChar

StartChar: parenleft
Encoding: 10 40 74
Width: 400
GlyphClass: 2
Flags: W
VStem: 73 62<-16.1028 432.456> 282 66<-443 -377 820 886>
LayerCount: 2
Fore
SplineSet
348 -443 m 1
 282 -443 l 1
 129 -254 73 -47 73 208 c 0
 73 473 136 681 283 886 c 1
 348 886 l 1
 203 687 135 480 135 208 c 0
 135 -37 198 -258 348 -443 c 1
EndSplineSet
EndChar

StartChar: parenright
Encoding: 11 41 75
Width: 400
GlyphClass: 2
Flags: W
VStem: 51 66<-434 -368 830 896> 265 62<-6.01245 441.703>
LayerCount: 2
Fore
SplineSet
327 218 m 0
 327 -38 271 -244 117 -434 c 1
 51 -434 l 1
 202 -249 265 -25 265 218 c 0
 265 488 196 697 51 896 c 1
 117 896 l 1
 263 690 327 482 327 218 c 0
EndSplineSet
EndChar

StartChar: asterisk
Encoding: 12 42 76
Width: 552
GlyphClass: 2
Flags: W
VStem: 244 66<210 389 505 684>
DStem2: 88 593 54 537 0.864848 -0.502034<0 177.868> 54 357 88 299 0.864848 0.502034<0.286876 180.386 295.702 295.702>
LayerCount: 2
Fore
SplineSet
498 357 m 1
 486 338 475 318 464 299 c 1
 310 389 l 1
 310 210 l 1
 244 210 l 1
 244 389 l 1
 88 299 l 1
 54 357 l 1
 211 446 l 1
 54 537 l 1
 88 593 l 1
 242 504 l 1
 242 684 l 1
 310 684 l 1
 310 505 l 1
 464 593 l 1
 475 574 486 555 498 537 c 1
 341 446 l 1
 498 357 l 1
EndSplineSet
EndChar

StartChar: plus
Encoding: 13 43 77
Width: 559
GlyphClass: 2
Flags: W
HStem: 186 62<91 248 310 468>
VStem: 248 62<29 186 248 407>
LayerCount: 2
Fore
SplineSet
468 248 m 1
 468 186 l 1
 310 186 l 1
 310 29 l 1
 248 29 l 1
 248 186 l 1
 91 186 l 1
 91 248 l 1
 248 248 l 1
 248 407 l 1
 310 407 l 1
 310 248 l 1
 468 248 l 1
EndSplineSet
EndChar

StartChar: comma
Encoding: 14 44 78
Width: 231
GlyphClass: 2
Flags: W
HStem: -2 137<64.0997 128.233>
VStem: 137 55<-49.7714 79.5>
LayerCount: 2
Fore
SplineSet
192 55 m 0
 192 -42 136 -126 88 -146 c 1
 83 -143 79 -140 75 -136 c 1
 111 -110 137 -61 137 -4 c 0
 137 13 137 18 135 23 c 1
 125 16 84 -2 64 -2 c 0
 45 -2 39 30 39 55 c 0
 39 102 77 135 115 135 c 0
 156 135 192 104 192 55 c 0
EndSplineSet
EndChar

StartChar: hyphen
Encoding: 15 45 79
Width: 485
GlyphClass: 2
Flags: W
HStem: 185 62<54 431>
LayerCount: 2
Fore
SplineSet
431 247 m 1
 431 185 l 1
 54 185 l 1
 54 247 l 1
 431 247 l 1
EndSplineSet
EndChar

StartChar: period
Encoding: 16 46 80
Width: 207
GlyphClass: 2
Flags: W
HStem: -16 124<55.4899 151.94>
VStem: 39 129<1.20785 90.7922>
LayerCount: 2
Fore
SplineSet
168 46 m 0
 168 12 138 -16 104 -16 c 0
 70 -16 39 12 39 46 c 0
 39 80 70 108 104 108 c 0
 138 108 168 80 168 46 c 0
EndSplineSet
EndChar

StartChar: slash
Encoding: 17 47 81
Width: 495
GlyphClass: 2
Flags: W
DStem2: 54 -172 101 -219 0.33165 0.943403<0 999.109>
LayerCount: 2
Fore
SplineSet
441 751 m 1
 101 -219 l 1
 54 -172 l 1
 395 798 l 1
 441 751 l 1
EndSplineSet
EndChar

StartChar: zero
Encoding: 18 48 82
Width: 489
GlyphClass: 2
Flags: W
HStem: -14 77<186.828 301.315> 564 76<184.007 304.137>
VStem: 41 92<137.457 501.12> 355 92<137.457 501.12>
LayerCount: 2
Fore
SplineSet
355 324 m 0
 355 454 343 564 244 564 c 0
 145 564 133 454 133 324 c 0
 133 193 145 63 244 63 c 0
 343 63 355 193 355 324 c 0
447 324 m 0
 447 163 417 -14 244 -14 c 0
 72 -14 41 163 41 324 c 0
 41 486 72 640 244 640 c 0
 417 640 447 486 447 324 c 0
EndSplineSet
EndChar

StartChar: one
Encoding: 19 49 83
Width: 489
GlyphClass: 2
Flags: W
HStem: 0 21G<246 334> 445 21G<107 132.5> 608 20G<225.5 334>
VStem: 246 88<0 519>
LayerCount: 2
Fore
SplineSet
334 0 m 1
 246 0 l 1
 246 519 l 1
 206 484 158 458 107 445 c 1
 107 524 l 1
 163 543 209 581 242 628 c 1
 334 628 l 1
 334 0 l 1
EndSplineSet
EndChar

StartChar: two
Encoding: 20 50 84
Width: 489
GlyphClass: 2
Flags: W
HStem: 0 74<152 440> 562 78<189.514 316.991>
VStem: 60 95<457 521.897> 345 95<367.337 534.783>
LayerCount: 2
Fore
SplineSet
440 0 m 1
 49 0 l 1
 49 86 l 1
 335 304 345 399 345 457 c 0
 345 523 320 562 254 562 c 0
 194 562 163 528 155 457 c 1
 60 457 l 1
 66 563 128 640 253 640 c 0
 375 640 440 554 440 469 c 0
 440 375 420 282 152 74 c 1
 440 74 l 1
 440 0 l 1
EndSplineSet
EndChar

StartChar: three
Encoding: 21 51 85
Width: 489
GlyphClass: 2
Flags: W
HStem: -14 74<175.808 305.435> 290 74<221 310.817> 567 73<182.359 308.617>
VStem: 39 99<99.4542 167> 51 94<464 558> 343 95<396.203 534.707> 353 95<104.671 252.429>
LayerCount: 2
Fore
SplineSet
448 169 m 0xe2
 448 65 358 -14 242 -14 c 0
 100 -14 39 73 39 167 c 1
 138 167 l 1
 143 114 168 60 241 60 c 0
 300 60 353 107 353 166 c 0xf2
 353 261 314 290 221 290 c 1
 221 364 l 1
 308 364 343 393 343 475 c 0
 343 546 284 567 241 567 c 0
 187 567 154 530 145 464 c 1
 51 464 l 1
 62 576 129 640 240 640 c 0
 359 640 438 566 438 472 c 0xec
 438 389 403 353 361 329 c 1
 411 303 448 269 448 169 c 0xe2
EndSplineSet
EndChar

StartChar: four
Encoding: 22 52 86
Width: 489
GlyphClass: 2
Flags: W
HStem: 0 21G<298 386> 149 79<101 298 386 464> 608 20G<266.615 386>
VStem: 298 88<0 149 228 527>
DStem2: 23 244 101 228 0.556198 0.83105<30.0866 388.142>
LayerCount: 2
Fore
SplineSet
298 228 m 1
 298 527 l 1
 101 228 l 1
 298 228 l 1
464 149 m 1
 386 149 l 1
 386 0 l 1
 298 0 l 1
 298 149 l 1
 23 149 l 1
 23 244 l 1
 280 628 l 1
 386 628 l 1
 386 228 l 1
 464 228 l 1
 464 149 l 1
EndSplineSet
EndChar

StartChar: five
Encoding: 23 53 87
Width: 489
GlyphClass: 2
Flags: W
HStem: -12 74<171.466 299.617> 346 70<184.184 312.825> 550 78<156 405>
VStem: 43 97<91.1113 153> 53 94<359 507.556> 53 84<260 296.468> 66 90<401.444 550> 350 94<118.182 304.982>
LayerCount: 2
Fore
SplineSet
444 208 m 0xe9
 444 101 359 -12 249 -12 c 0
 123 -12 44 49 43 153 c 1
 140 153 l 1xf1
 140 92 181 62 240 62 c 0
 299 62 350 115 350 205 c 0
 350 291 323 346 250 346 c 0
 193 346 160 310 137 260 c 1
 53 260 l 1xe5
 58 383 61 505 66 628 c 1
 405 628 l 1
 405 550 l 1
 156 550 l 1xe3
 147 359 l 1
 176 396 208 416 273 416 c 0
 383 416 444 317 444 208 c 0xe9
EndSplineSet
EndChar

StartChar: six
Encoding: 24 54 88
Width: 489
GlyphClass: 2
Flags: W
HStem: -14 74<180.435 316.684> 319 71<182.949 317.845> 567 73<198.77 316.696>
VStem: 39 92<312 473.783> 343 91<478 539.921> 354 96<98.6432 280.777>
LayerCount: 2
Fore
SplineSet
354 189 m 0xf4
 354 273 324 319 249 319 c 0
 174 319 143 273 143 189 c 0
 143 107 174 60 249 60 c 0
 324 60 354 107 354 189 c 0xf4
450 192 m 0
 450 110 409 -14 250 -14 c 0
 63 -14 39 105 39 296 c 0
 39 457 71 640 255 640 c 0
 367 640 420 583 434 478 c 1
 343 478 l 1xf8
 338 543 305 567 255 567 c 0
 141 567 131 390 131 312 c 1
 158 356 193 390 267 390 c 0
 419 390 450 269 450 192 c 0
EndSplineSet
EndChar

StartChar: seven
Encoding: 25 55 89
Width: 489
GlyphClass: 2
Flags: W
HStem: 0 21G<129 241.805> 552 76<48 355>
DStem2: 129 0 234 0 0.378894 0.92544<39.7839 596.473>
LayerCount: 2
Fore
SplineSet
442 533 m 1
 234 0 l 1
 129 0 l 1
 355 552 l 1
 48 552 l 1
 48 628 l 1
 442 628 l 1
 442 533 l 1
EndSplineSet
EndChar

StartChar: eight
Encoding: 26 56 90
Width: 489
GlyphClass: 2
Flags: W
HStem: -12 73<170.668 318.273> 296 72<180.326 309.007> 567 73<176.683 312.928>
VStem: 36 92<105.147 249.099> 53 90<404.587 532.572> 347 90<405.241 532.438> 360 93<101.706 248.326>
LayerCount: 2
Fore
SplineSet
360 180 m 0xf2
 360 247 319 296 244 296 c 0
 172 296 128 247 128 180 c 0
 128 112 164 61 244 61 c 0
 327 61 360 113 360 180 c 0xf2
347 468 m 0xec
 347 529 309 567 244 567 c 0
 181 567 143 529 143 468 c 0
 143 407 189 368 244 368 c 0
 301 368 347 407 347 468 c 0xec
453 161 m 0xe2
 453 32 340 -12 244 -12 c 0
 149 -12 36 33 36 161 c 0xf2
 36 260 101 310 155 333 c 1
 106 355 53 400 53 485 c 0
 53 594 155 640 244 640 c 0
 336 640 437 595 437 484 c 0xec
 437 406 382 354 331 333 c 1
 381 315 453 261 453 161 c 0xe2
EndSplineSet
EndChar

StartChar: nine
Encoding: 27 57 91
Width: 489
GlyphClass: 2
Flags: W
HStem: -14 74<171.657 290.297> 237 70<172.361 304.272> 567 73<171.465 308.277>
VStem: 39 95<344.402 528.448> 54 92<85.5696 150> 358 92<158.118 316>
LayerCount: 2
Fore
SplineSet
345 437 m 0xf4
 345 520 315 567 239 567 c 0
 163 567 134 520 134 437 c 0
 134 354 163 307 239 307 c 0
 315 307 345 354 345 437 c 0xf4
450 331 m 0
 450 170 414 -14 233 -14 c 0
 123 -14 65 46 54 150 c 1
 146 150 l 1xec
 149 83 184 60 234 60 c 0
 344 60 358 231 358 316 c 1
 327 265 287 237 221 237 c 0
 65 237 39 361 39 434 c 0
 39 519 81 640 238 640 c 0
 428 640 450 520 450 331 c 0
EndSplineSet
EndChar

StartChar: colon
Encoding: 28 58 92
Width: 207
GlyphClass: 2
Flags: W
HStem: -16 125<56.5507 150.903> 324 125<55.4899 151.94>
VStem: 39 129<1.68442 91.7922 341.208 431.679>
LayerCount: 2
Fore
SplineSet
168 47 m 0
 168 13 138 -16 104 -16 c 0
 70 -16 39 13 39 47 c 0
 39 81 70 109 104 109 c 0
 138 109 168 81 168 47 c 0
168 386 m 0
 168 352 138 324 104 324 c 0
 70 324 39 352 39 386 c 0
 39 421 70 449 104 449 c 0
 138 449 168 421 168 386 c 0
EndSplineSet
EndChar

StartChar: semicolon
Encoding: 29 59 93
Width: 213
GlyphClass: 2
Flags: W
HStem: -3 112<56.9337 123.055> 324 125<56.5507 150.903>
VStem: 39 128<19.9299 90.3624 341.798 432.269> 125 42<-42.0746 58.5>
LayerCount: 2
Fore
SplineSet
167 39 m 0xe0
 167 -30 122 -87 90 -108 c 1
 86 -105 83 -102 79 -99 c 1
 106 -80 125 -45 125 4 c 0xd0
 125 9 125 13 124 17 c 1
 104 7 73 -3 62 -3 c 0
 50 -3 39 17 39 44 c 0
 39 78 69 109 101 109 c 0
 137 109 167 78 167 39 c 0xe0
168 388 m 0
 168 353 138 324 104 324 c 0
 70 324 39 353 39 388 c 0xe0
 39 422 70 449 104 449 c 0
 138 449 168 422 168 388 c 0
EndSplineSet
EndChar

StartChar: less
Encoding: 30 60 94
Width: 870
GlyphClass: 2
Flags: W
VStem: 174 72<196 324>
DStem2: 174 288 246 261 0.934175 0.356815<57.6266 536.659> 246 261 174 232 0.934175 -0.356815<0 479.033>
LayerCount: 2
Fore
SplineSet
695 94 m 1
 695 33 l 1
 174 232 l 1
 174 288 l 1
 695 487 l 1
 695 428 l 1
 246 261 l 1
 695 94 l 1
EndSplineSet
EndChar

StartChar: equal
Encoding: 31 61 95
Width: 565
GlyphClass: 2
Flags: W
HStem: 98 63<48 517> 273 62<48 517>
LayerCount: 2
Fore
SplineSet
517 335 m 1
 517 273 l 1
 48 273 l 1
 48 335 l 1
 517 335 l 1
517 161 m 1
 517 98 l 1
 48 98 l 1
 48 161 l 1
 517 161 l 1
EndSplineSet
EndChar

StartChar: greater
Encoding: 32 62 96
Width: 870
GlyphClass: 2
Flags: W
VStem: 624 71<196.5 323.5>
DStem2: 174 487 174 428 0.934175 -0.356815<21.0521 501.019> 174 94 174 33 0.934175 0.356815<0 479.967>
LayerCount: 2
Fore
SplineSet
695 288 m 1
 695 232 l 1
 174 33 l 1
 174 94 l 1
 624 261 l 1
 174 428 l 1
 174 487 l 1
 695 288 l 1
EndSplineSet
EndChar

StartChar: question
Encoding: 33 63 97
Width: 436
GlyphClass: 2
Flags: W
HStem: -2 112<161.986 249.426> 692 63<145.639 266.409>
VStem: 30 62<537 636.941> 150 112<10.3771 98.1458> 175 61<195 395.508> 320 62<516.166 638.343>
LayerCount: 2
Fore
SplineSet
382 574 m 0xec
 382 427 236 444 236 337 c 2
 236 195 l 1
 175 195 l 1
 175 352 l 2
 175 476 320 471 320 574 c 0
 320 632 267 692 206 692 c 0
 132 692 92 613 92 580 c 2
 92 537 l 1
 30 537 l 1
 30 580 l 2
 30 627 78 755 206 755 c 0
 313 755 382 667 382 574 c 0xec
262 55 m 0xf4
 262 19 232 -2 206 -2 c 0
 178 -2 150 20 150 55 c 0
 150 90 178 110 206 110 c 0
 232 110 262 90 262 55 c 0xf4
EndSplineSet
EndChar

StartChar: at
Encoding: 34 64 98
Width: 877
GlyphClass: 2
Flags: W
HStem: -161 84<322.998 603.094> -140 80<526 606> 15 79<613.237 697.531> 18 67<369.494 478.698> 363 67<371.151 484.073> 544 82<323.233 576.579>
VStem: 48 91<114.546 363.039> 241 92<125.901 319.447> 523 87<139.37 318.237 372 423> 737 91<144.458 384.295>
LayerCount: 2
Fore
SplineSet
520 231 m 0x1fc0
 520 306 491 363 426 363 c 0
 359 363 333 296 333 229 c 0
 333 160 352 85 426 85 c 0
 491 85 520 160 520 231 c 0x1fc0
828 261 m 0
 828 136 756 15 650 15 c 0xafc0
 594 15 557 44 533 95 c 1
 503 46 467 18 403 18 c 0x1fc0
 310 18 241 110 241 224 c 0
 241 348 308 430 401 430 c 0
 454 430 486 417 523 372 c 1
 523 423 l 1
 610 423 l 1
 610 131 l 2
 610 98 639 94 657 94 c 0
 689 94 737 136 737 254 c 0
 737 461 619 544 440 544 c 0
 297 544 139 457 139 244 c 0
 139 49 250 -77 443 -77 c 0xafc0
 517 -77 549 -75 606 -60 c 1
 606 -140 l 1x4fc0
 538 -159 510 -161 458 -161 c 0x8fc0
 251 -161 48 -59 48 246 c 0
 48 484 237 626 437 626 c 0
 669 626 828 496 828 261 c 0
EndSplineSet
EndChar

StartChar: A
Encoding: 35 65 99
Width: 644
GlyphClass: 2
Flags: W
HStem: 0 21G<12 116.95 526.801 633> 161 78<208 432> 608 20G<260.815 380.312>
DStem2: 12 0 109 0 0.378748 0.9255<36.7385 209.984 295.429 598.461> 372 628 319 521 0.38378 -0.923425<78.4661 382.239 468.466 642.467>
LayerCount: 2
Fore
SplineSet
432 239 m 1
 319 521 l 1
 208 239 l 1
 432 239 l 1
633 0 m 1
 535 0 l 1
 469 161 l 1
 173 161 l 1
 109 0 l 1
 12 0 l 1
 269 628 l 1
 372 628 l 1
 633 0 l 1
EndSplineSet
EndChar

StartChar: B
Encoding: 36 66 100
Width: 586
GlyphClass: 2
Flags: W
HStem: 0 81<163 386.033> 289 77<163 380.462> 547 81<163 384.63>
VStem: 68 95<81 289 366 547> 419 91<401.033 515.285> 439 95<126.359 246.007>
LayerCount: 2
Fore
SplineSet
439 185 m 0xf4
 439 253 383 289 288 289 c 2
 163 289 l 1
 163 81 l 1
 292 81 l 2
 378 81 439 121 439 185 c 0xf4
419 458 m 0xf8
 419 511 385 547 293 547 c 2
 163 547 l 1
 163 366 l 1
 290 366 l 2
 383 366 419 406 419 458 c 0xf8
534 172 m 0xf4
 534 70 438 0 341 0 c 2
 68 0 l 1
 68 628 l 1
 321 628 l 2
 422 628 510 579 510 473 c 0xf8
 510 400 455 351 398 333 c 1
 472 312 534 258 534 172 c 0xf4
EndSplineSet
EndChar

StartChar: C
Encoding: 37 67 101
Width: 600
GlyphClass: 2
Flags: W
HStem: -14 21G<215 383> 565 75<232.486 406.282>
VStem: 50 99<159.158 461.551> 450 98<110.286 176 454 523.346>
LayerCount: 2
Fore
SplineSet
548 176 m 1
 545 68 453 -14 313 -14 c 0
 117 -14 50 140 50 310 c 0
 50 482 119 640 314 640 c 0
 472 640 542 560 544 454 c 1
 449 454 l 1
 447 527 408 565 314 565 c 0
 202 565 149 480 149 310 c 0
 149 138 202 72 298 66 c 1
 387 59 446 94 450 176 c 1
 548 176 l 1
EndSplineSet
EndChar

StartChar: D
Encoding: 38 68 102
Width: 627
GlyphClass: 2
Flags: W
HStem: 0 81<163 367.262> 547 81<163 367.97>
VStem: 68 95<81 547> 481 95<197.356 428.842>
LayerCount: 2
Fore
SplineSet
481 314 m 0
 481 467 399 547 264 547 c 2
 163 547 l 1
 163 81 l 1
 264 81 l 2
 399 81 481 164 481 314 c 0
576 314 m 0
 576 151 490 0 262 0 c 2
 68 0 l 1
 68 628 l 1
 262 628 l 2
 492 628 576 482 576 314 c 0
EndSplineSet
EndChar

StartChar: E
Encoding: 39 69 103
Width: 531
GlyphClass: 2
Flags: W
HStem: 0 81<162 470> 283 78<162 451> 547 81<162 462>
VStem: 68 94<81 283 361 547>
LayerCount: 2
Fore
SplineSet
470 0 m 1
 68 0 l 1
 68 628 l 1
 462 628 l 1
 462 547 l 1
 162 547 l 1
 162 361 l 1
 451 361 l 1
 451 283 l 1
 162 283 l 1
 162 81 l 1
 470 81 l 1
 470 0 l 1
EndSplineSet
EndChar

StartChar: F
Encoding: 40 70 104
Width: 498
GlyphClass: 2
Flags: W
HStem: 0 21G<68 163> 282 79<163 422> 547 81<163 440>
VStem: 68 95<0 282 361 547>
LayerCount: 2
Fore
SplineSet
422 282 m 1
 163 282 l 1
 163 0 l 1
 68 0 l 1
 68 628 l 1
 440 628 l 1
 440 547 l 1
 163 547 l 1
 163 361 l 1
 422 361 l 1
 422 282 l 1
EndSplineSet
EndChar

StartChar: G
Encoding: 41 71 105
Width: 665
GlyphClass: 2
Flags: W
HStem: -14 83<262.007 498.116> 253 82<363 500> 558 82<259.385 448.478>
VStem: 50 99<199.033 444.978> 500 96<82.4151 253 464 514.179>
LayerCount: 2
Fore
SplineSet
596 29 m 1
 515 3 421 -14 368 -14 c 0
 114 -14 50 166 50 332 c 0
 50 505 170 640 357 640 c 0
 522 640 601 545 601 464 c 1
 504 464 l 1
 504 508 447 558 363 558 c 0
 209 558 149 456 149 331 c 0
 149 192 206 69 359 69 c 0
 404 69 455 75 500 88 c 1
 500 253 l 1
 363 253 l 1
 363 335 l 1
 596 335 l 1
 596 29 l 1
EndSplineSet
EndChar

StartChar: H
Encoding: 42 72 106
Width: 617
GlyphClass: 2
Flags: W
HStem: 0 21G<68 162 453 551> 283 79<162 453> 608 20G<68 162 453 551>
VStem: 68 94<0 283 362 628> 453 98<0 283 362 628>
LayerCount: 2
Fore
SplineSet
551 0 m 1
 453 0 l 1
 453 283 l 1
 162 283 l 1
 162 0 l 1
 68 0 l 1
 68 628 l 1
 162 628 l 1
 162 362 l 1
 453 362 l 1
 453 628 l 1
 551 628 l 1
 551 0 l 1
EndSplineSet
EndChar

StartChar: I
Encoding: 43 73 107
Width: 232
GlyphClass: 2
Flags: W
HStem: 0 21G<68 163> 608 20G<68 163>
VStem: 68 95<0 628>
LayerCount: 2
Fore
SplineSet
163 0 m 1
 68 0 l 1
 68 628 l 1
 163 628 l 1
 163 0 l 1
EndSplineSet
EndChar

StartChar: J
Encoding: 44 74 108
Width: 505
GlyphClass: 2
Flags: W
HStem: -14 83<176.23 303.064> 608 20G<340 437>
VStem: 50 96<101.698 174> 340 97<109.181 628>
LayerCount: 2
Fore
SplineSet
437 187 m 2
 437 66 351 -14 238 -14 c 0
 119 -14 50 62 50 174 c 1
 146 174 l 1
 147 94 189 69 241 69 c 0
 298 69 340 107 340 188 c 2
 340 628 l 1
 437 628 l 1
 437 187 l 2
EndSplineSet
EndChar

StartChar: K
Encoding: 45 75 109
Width: 583
GlyphClass: 2
Flags: W
HStem: 0 21G<68 163 418.415 560> 608 20G<68 163 394.343 529>
VStem: 68 95<0 328 360 628> 413 116<512 628> 435 125<0 125>
DStem2: 163 360 272 355 0.685448 0.728122<71.0732 366.499> 272 355 163 328 0.630016 -0.776582<0 378.379>
LayerCount: 2
Fore
SplineSet
560 0 m 1xe8
 435 0 l 1xe8
 163 328 l 1
 163 0 l 1
 68 0 l 1
 68 628 l 1
 163 628 l 1
 163 360 l 1
 413 628 l 1
 529 628 l 1xf0
 272 355 l 1
 560 0 l 1xe8
EndSplineSet
EndChar

StartChar: L
Encoding: 46 76 110
Width: 467
GlyphClass: 2
Flags: W
HStem: 0 81<163 443> 608 20G<68 163>
VStem: 68 95<81 628>
LayerCount: 2
Fore
SplineSet
443 0 m 1
 68 0 l 1
 68 628 l 1
 163 628 l 1
 163 81 l 1
 443 81 l 1
 443 0 l 1
EndSplineSet
EndChar

StartChar: M
Encoding: 47 77 111
Width: 786
GlyphClass: 2
Flags: W
HStem: 0 21G<68 161 343.91 464 624 718> 608 21G<68 226.976 558.078 718>
VStem: 68 93<0 536> 624 94<0 540>
DStem2: 220 628 161 536 0.334108 -0.942535<67.0009 525.298> 393 132 432 0 0.33501 0.942215<0 461.811>
LayerCount: 2
Fore
SplineSet
718 0 m 1
 624 0 l 1
 624 540 l 1
 560 360 496 180 432 0 c 1
 351 0 l 1
 161 536 l 1
 161 0 l 1
 68 0 l 1
 68 628 l 1
 220 628 l 1
 393 132 l 1
 565 629 l 1
 718 629 l 1
 718 0 l 1
EndSplineSet
EndChar

StartChar: N
Encoding: 48 78 112
Width: 636
GlyphClass: 2
Flags: W
HStem: 0 21G<68 161 421.414 569> 608 20G<68 213.565 474 569>
VStem: 68 93<0 512> 474 95<115 628>
DStem2: 203 628 161 512 0.467096 -0.884207<82.95 580.181>
LayerCount: 2
Fore
SplineSet
569 0 m 1
 432 0 l 1
 161 512 l 1
 161 0 l 1
 68 0 l 1
 68 628 l 1
 203 628 l 1
 474 115 l 1
 474 628 l 1
 569 628 l 1
 569 0 l 1
EndSplineSet
EndChar

StartChar: O
Encoding: 49 79 113
Width: 676
GlyphClass: 2
Flags: W
HStem: -14 83<248.22 428.941> 558 82<242.613 431.536>
VStem: 50 100<185.659 457.097> 526 99<185.23 456.453>
LayerCount: 2
Fore
SplineSet
526 324 m 0
 526 459 482 558 339 558 c 0
 195 558 150 459 150 324 c 0
 150 188 195 69 339 69 c 0
 482 69 526 188 526 324 c 0
625 324 m 0
 625 142 531 -14 339 -14 c 0
 145 -14 50 144 50 324 c 0
 50 505 147 640 339 640 c 0
 533 640 625 502 625 324 c 0
EndSplineSet
EndChar

StartChar: P
Encoding: 50 80 114
Width: 548
GlyphClass: 2
Flags: W
HStem: 0 21G<68 163> 261 81<163 361.549> 547 81<163 359.04>
VStem: 68 95<0 261 342 547> 403 93<379.641 507.97>
LayerCount: 2
Fore
SplineSet
403 443 m 0
 403 520 351 547 250 547 c 2
 163 547 l 1
 163 342 l 1
 250 342 l 2
 350 342 403 367 403 443 c 0
496 443 m 0
 496 289 374 261 254 261 c 2
 163 261 l 1
 163 0 l 1
 68 0 l 1
 68 628 l 1
 254 628 l 2
 376 628 496 596 496 443 c 0
EndSplineSet
EndChar

StartChar: Q
Encoding: 51 81 115
Width: 692
GlyphClass: 2
Flags: W
HStem: -14 83<248.044 507.883 535 587.219> 0 69<340.127 428.547 535 664> 558 82<242.427 431.536>
VStem: 50 100<185.874 457.097> 526 99<182.903 456.453>
LayerCount: 2
Fore
SplineSet
526 324 m 0xb8
 526 459 482 558 339 558 c 0
 195 558 150 459 150 324 c 0
 150 188 195 69 339 69 c 0
 482 69 526 188 526 324 c 0xb8
664 0 m 1x78
 430 0 l 1x78
 390 -9 363 -14 339 -14 c 0
 144 -14 50 145 50 324 c 0
 50 505 146 640 339 640 c 0
 533 640 625 502 625 324 c 0
 625 220 595 124 535 69 c 1xb8
 664 69 l 1
 664 0 l 1x78
EndSplineSet
EndChar

StartChar: R
Encoding: 52 82 116
Width: 557
GlyphClass: 2
Flags: W
HStem: 0 21G<68 163 398.5 521> 279 80<163 352.406> 547 81<163 369.217>
VStem: 68 95<0 279 359 547> 409 96<395.34 510.59>
LayerCount: 2
Fore
SplineSet
409 452 m 0
 409 524 352 547 275 547 c 2
 163 547 l 1
 163 359 l 1
 273 359 l 2
 351 359 409 385 409 452 c 0
521 0 m 1
 423 0 l 1
 374 201 392 269 303 277 c 0
 285 278 262 279 235 279 c 2
 163 279 l 1
 163 0 l 1
 68 0 l 1
 68 628 l 1
 275 628 l 2
 426 628 505 582 505 456 c 0
 505 390 446 347 385 318 c 1
 422 310 451 294 468 253 c 0
 488 202 486 92 521 0 c 1
EndSplineSet
EndChar

StartChar: S
Encoding: 53 83 117
Width: 579
GlyphClass: 2
Flags: W
HStem: -14 83<196.555 386.44> 559 81<192.07 373.393>
VStem: 50 99<118.519 189> 61 95<416.852 526.252> 407 97<466 524.916> 434 93<110.145 228.246>
LayerCount: 2
Fore
SplineSet
527 176 m 0xd4
 527 32 386 -14 267 -14 c 0
 146 -14 50 63 50 189 c 1
 149 189 l 1
 149 119 196 69 267 69 c 0
 333 69 434 79 434 168 c 0xe4
 434 354 61 206 61 464 c 0
 61 577 180 640 279 640 c 0
 393 640 504 594 504 466 c 1
 407 466 l 1xd8
 407 546 341 559 276 559 c 0
 213 559 156 536 156 465 c 0
 156 309 527 424 527 176 c 0xd4
EndSplineSet
EndChar

StartChar: T
Encoding: 54 84 118
Width: 537
GlyphClass: 2
Flags: W
HStem: 0 21G<221 317> 547 81<20 221 317 518>
VStem: 221 96<0 547>
LayerCount: 2
Fore
SplineSet
518 547 m 1
 317 547 l 1
 317 0 l 1
 221 0 l 1
 221 547 l 1
 20 547 l 1
 20 628 l 1
 518 628 l 1
 518 547 l 1
EndSplineSet
EndChar

StartChar: U
Encoding: 55 85 119
Width: 643
GlyphClass: 2
Flags: W
HStem: -14 83<230.673 413.321> 608 20G<68 163 480 576>
VStem: 68 95<146.143 628> 480 96<145.254 628>
LayerCount: 2
Fore
SplineSet
576 275 m 2
 576 74 492 -14 320 -14 c 0
 146 -14 68 76 68 275 c 2
 68 628 l 1
 163 628 l 1
 163 275 l 2
 163 102 233 69 321 69 c 0
 408 69 480 100 480 275 c 2
 480 628 l 1
 576 628 l 1
 576 275 l 2
EndSplineSet
EndChar

StartChar: V
Encoding: 56 86 120
Width: 583
GlyphClass: 2
Flags: W
HStem: 0 21G<228.866 351.229> 608 20G<12 124.798 458.163 571>
DStem2: 118 628 12 628 0.335956 -0.941878<0 537.536> 291 119 344 0 0.339939 0.940448<0 537.837>
LayerCount: 2
Fore
SplineSet
571 628 m 1
 344 0 l 1
 236 0 l 1
 12 628 l 1
 118 628 l 1
 291 119 l 1
 465 628 l 1
 571 628 l 1
EndSplineSet
EndChar

StartChar: W
Encoding: 57 87 121
Width: 850
GlyphClass: 2
Flags: W
HStem: 0 21G<186.268 288.547 558.57 663.732> 608 20G<12 118.071 363.686 486.274 730.929 838>
VStem: 12 101<527 628> 736 102<526 628>
DStem2: 238 135 283 0 0.267256 0.963626<0 413.264> 481 628 425 512 0.262001 -0.965068<97.2758 509.838>
LayerCount: 2
Fore
SplineSet
838 628 m 1
 658 0 l 1
 564 0 l 1
 425 512 l 1
 283 0 l 1
 192 0 l 1
 12 628 l 1
 113 628 l 1
 238 135 l 1
 369 628 l 1
 481 628 l 1
 611 135 l 1
 736 628 l 1
 838 628 l 1
EndSplineSet
EndChar

StartChar: X
Encoding: 58 88 122
Width: 610
GlyphClass: 2
Flags: W
HStem: 0 21G<19 139.906 458.868 591> 608 20G<46 188.5 441.456 563>
VStem: 19 108<0 108> 46 118<510 628> 454 109<519 628> 472 119<0 119>
DStem2: 19 0 127 0 0.569414 0.822051<61.4967 61.4967 495.089 763.943> 164 628 46 628 0.562274 -0.826951<0 271.199 375.528 692.506>
LayerCount: 2
Fore
SplineSet
591 0 m 1xc4
 472 0 l 1
 298 265 l 1
 127 0 l 1
 19 0 l 1xe4
 95 111 171 222 247 333 c 1
 46 628 l 1
 164 628 l 1
 213 552 262 476 311 400 c 1
 454 628 l 1
 563 628 l 1xd8
 361 333 l 1
 591 0 l 1xc4
EndSplineSet
EndChar

StartChar: Y
Encoding: 59 89 123
Width: 578
GlyphClass: 2
Flags: W
HStem: 0 21G<241 336> 608 20G<12 137.293 429.5 564>
VStem: 241 95<0 247>
DStem2: 126 628 12 628 0.515157 -0.857096<0 337.502> 292 334 336 247 0.513502 0.858089<0 337.006>
LayerCount: 2
Fore
SplineSet
564 628 m 1
 488 501 412 374 336 247 c 1
 336 0 l 1
 241 0 l 1
 241 247 l 1
 12 628 l 1
 126 628 l 1
 292 334 l 1
 347 432 402 530 457 628 c 1
 564 628 l 1
EndSplineSet
EndChar

StartChar: Z
Encoding: 60 90 124
Width: 539
GlyphClass: 2
Flags: W
HStem: 0 81<146 499> 547 81<57 385>
DStem2: 39 98 146 81 0.610393 0.792099<51.8463 566.848>
LayerCount: 2
Fore
SplineSet
499 0 m 1
 39 0 l 1
 39 98 l 1
 385 547 l 1
 57 547 l 1
 57 628 l 1
 491 628 l 1
 491 529 l 1
 146 81 l 1
 499 81 l 1
 499 0 l 1
EndSplineSet
EndChar

StartChar: bracketleft
Encoding: 61 91 125
Width: 343
GlyphClass: 2
Flags: W
HStem: -173 51<169 256> 576 52<169 256>
VStem: 88 168<-173 -122 576 628> 88 81<-122 576>
LayerCount: 2
Fore
SplineSet
256 -173 m 1xe0
 88 -173 l 1
 88 628 l 1
 256 628 l 1
 256 576 l 1xe0
 169 576 l 1
 169 -122 l 1xd0
 256 -122 l 1
 256 -173 l 1xe0
EndSplineSet
EndChar

StartChar: backslash
Encoding: 62 92 126
Width: 495
GlyphClass: 2
Flags: W
DStem2: 101 798 54 751 0.33165 -0.943403<22.3083 1033.55>
LayerCount: 2
Fore
SplineSet
441 -172 m 1
 426 -188 411 -204 395 -219 c 1
 54 751 l 1
 69 767 86 782 101 798 c 1
 441 -172 l 1
EndSplineSet
EndChar

StartChar: bracketright
Encoding: 63 93 127
Width: 343
GlyphClass: 2
Flags: W
HStem: -173 51<88 176> 576 52<88 176>
VStem: 88 168<-173 -122 576 628> 176 80<-122 576>
LayerCount: 2
Fore
SplineSet
256 -173 m 1xe0
 88 -173 l 1
 88 -122 l 1xe0
 176 -122 l 1
 176 576 l 1xd0
 88 576 l 1
 88 628 l 1
 256 628 l 1
 256 -173 l 1xe0
EndSplineSet
EndChar

StartChar: asciicircum
Encoding: 64 94 128
Width: 466
GlyphClass: 2
Flags: W
HStem: 586 256
DStem2: 11 619 44 586 0.705516 0.708694<-0.137526 266.472> 233 842 233 774 0.707107 -0.707107<48.0833 315.37>
LayerCount: 2
Fore
SplineSet
456 619 m 1
 423 586 l 1
 233 774 l 1
 44 586 l 1
 32 597 22 608 11 619 c 1
 233 842 l 1
 456 619 l 1
EndSplineSet
EndChar

StartChar: underscore
Encoding: 65 95 129
Width: 562
GlyphClass: 2
Flags: W
HStem: -146 62<0 562>
LayerCount: 2
Fore
SplineSet
562 -146 m 1
 0 -146 l 1
 0 -84 l 1
 562 -84 l 1
 562 -146 l 1
EndSplineSet
EndChar

StartChar: grave
Encoding: 66 96 130
Width: 203
GlyphClass: 2
Flags: W
HStem: 521 151
VStem: -22 178
LayerCount: 2
Fore
SplineSet
156 521 m 1
 102 521 l 1
 -22 672 l 1
 70 672 l 1
 156 521 l 1
EndSplineSet
EndChar

StartChar: a
Encoding: 67 97 131
Width: 480
GlyphClass: 2
Flags: W
HStem: -12 63<153.598 283.112> 0 21G<345.5 431> 217 58<183.16 331.478> 385 60<173.627 311.457>
VStem: 41 89<74.4679 173.782> 63 88<316 360.776> 332 87<101.305 216.375 275 364.102> 348 83<0 59.0625>
LayerCount: 2
Fore
SplineSet
332 215 m 1xba
 321 216 301 217 288 217 c 0
 227 217 130 196 130 125 c 0
 130 80 167 51 212 51 c 0
 314 51 332 126 332 215 c 1xba
431 0 m 1x71
 348 0 l 1x71
 343 20 340 40 337 60 c 1
 294 10 262 -12 205 -12 c 0
 129 -12 41 31 41 115 c 0xb9
 41 246 170 275 272 275 c 2
 333 275 l 1
 340 339 322 385 242 385 c 0
 197 385 153 366 151 316 c 1
 63 316 l 1
 63 414 149 445 241 445 c 0
 301 445 387 435 410 369 c 0
 417 350 419 302 419 263 c 2
 419 158 l 2xb6
 419 116 418 34 431 0 c 1x71
EndSplineSet
EndChar

StartChar: b
Encoding: 68 98 132
Width: 517
GlyphClass: 2
Flags: W
HStem: -12 63<198.114 326.16> 0 21G<59 146> 391 54<201.076 327.77> 608 20G<59 144>
VStem: 59 85<0 51 112.963 325.93 379 628> 384 91<120.704 329.396>
LayerCount: 2
Fore
SplineSet
384 224 m 0xbc
 384 305 354 391 265 391 c 0
 183 391 145 313 145 225 c 0
 145 118 183 51 264 51 c 0
 335 51 383 120 384 224 c 0xbc
475 230 m 0
 475 75 382 -12 287 -12 c 0
 222 -12 174 18 146 51 c 1xbc
 146 0 l 1
 59 0 l 1x7c
 59 628 l 1
 144 628 l 1
 144 379 l 1
 167 411 208 445 288 445 c 0
 433 445 475 313 475 230 c 0
EndSplineSet
EndChar

StartChar: c
Encoding: 69 99 133
Width: 451
GlyphClass: 2
Flags: W
HStem: -12 62<168.585 293.43> 384 61<167.289 298.49>
VStem: 43 84<95.4838 336.651> 324 86<80.5077 149 296 382>
LayerCount: 2
Fore
SplineSet
410 149 m 1
 410 63 363 -12 234 -12 c 0
 105 -12 43 64 43 216 c 0
 43 368 100 445 228 445 c 0
 357 445 413 386 406 296 c 1
 322 296 l 1
 330 362 277 384 224 384 c 0
 167 384 127 342 127 217 c 0
 127 94 163 50 233 50 c 0
 305 50 324 108 324 149 c 1
 410 149 l 1
EndSplineSet
EndChar

StartChar: d
Encoding: 70 100 134
Width: 518
GlyphClass: 2
Flags: W
HStem: -12 66<189.993 313.877> 0 21G<372 457> 390 55<184.224 305.824> 608 20G<372 457>
VStem: 43 86<121.788 325.114> 372 85<0 52 122.987 308.773 382 628>
LayerCount: 2
Fore
SplineSet
370 214 m 0xbc
 370 311 318 390 242 390 c 0
 158 390 129 294 129 218 c 0
 129 132 175 54 251 54 c 0
 335 54 370 144 370 214 c 0xbc
457 0 m 1x7c
 372 0 l 1x7c
 372 52 l 1
 345 19 299 -12 245 -12 c 0xbc
 137 -12 43 84 43 209 c 0
 43 323 94 445 225 445 c 0
 286 445 338 426 372 382 c 1
 372 628 l 1
 457 628 l 1
 457 0 l 1x7c
EndSplineSet
EndChar

StartChar: e
Encoding: 71 101 135
Width: 483
GlyphClass: 2
Flags: W
HStem: -12 60<178.411 310.473> 203 60<133 347.817> 387 58<181.38 313.434>
VStem: 43 90<107.348 203 263 329.488> 346 90<48 138>
LayerCount: 2
Fore
SplineSet
347 263 m 1
 353 328 328 387 242 387 c 0
 164 387 140 317 133 263 c 1
 347 263 l 1
436 138 m 1
 425 61 368 -12 241 -12 c 0
 96 -12 43 111 43 217 c 0
 43 330 97 445 247 445 c 0
 411 445 440 319 440 242 c 0
 440 229 439 215 438 203 c 1
 133 203 l 1
 134 114 162 48 243 48 c 0
 314 48 341 97 346 138 c 1
 436 138 l 1
EndSplineSet
EndChar

StartChar: f
Encoding: 72 102 136
Width: 291
GlyphClass: 2
Flags: W
HStem: 0 21G<93 180> 374 61<9 93 180 282> 572 65<192.714 290.133>
VStem: 93 87<0 374 435 560.134>
LayerCount: 2
Fore
SplineSet
291 560 m 1
 277 567 262 572 244 572 c 0
 198 572 180 552 180 498 c 2
 180 435 l 1
 282 435 l 1
 282 374 l 1
 180 374 l 1
 180 0 l 1
 93 0 l 1
 93 374 l 1
 9 374 l 1
 9 435 l 1
 93 435 l 1
 93 501 l 2
 93 607 140 637 224 637 c 0
 246 637 268 634 291 627 c 1
 291 560 l 1
EndSplineSet
EndChar

StartChar: g
Encoding: 73 103 137
Width: 517
GlyphClass: 2
Flags: W
HStem: -173 58<182.468 325.389> 10 60<182.122 316.436> 387 58<179.018 318.69> 415 20G<370 457>
VStem: 43 87<127.574 331.021> 64 89<-85.6561 -37> 370 87<-60.9539 79 130.157 328.395 389 435>
LayerCount: 2
Fore
SplineSet
370 226 m 0xea
 370 322 334 387 246 387 c 0
 156 387 130 310 130 227 c 0
 130 135 169 70 249 70 c 0
 337 70 370 148 370 226 c 0xea
457 20 m 2
 457 -92 383 -173 244 -173 c 0
 98 -173 64 -82 64 -37 c 1
 153 -37 l 1xd6
 153 -90 204 -115 256 -115 c 0
 336 -115 370 -68 370 79 c 1
 344 35 287 10 236 10 c 0
 116 10 43 83 43 227 c 0
 43 355 117 445 228 445 c 0xea
 300 445 344 430 370 389 c 1
 370 435 l 1
 457 435 l 1xda
 457 20 l 2
EndSplineSet
EndChar

StartChar: h
Encoding: 74 104 138
Width: 502
GlyphClass: 2
Flags: W
HStem: 0 21G<59 146 355 442> 387 58<194.196 322.798> 608 20G<59 146>
VStem: 59 87<0 340.718 381 628> 355 87<0 353.604>
LayerCount: 2
Fore
SplineSet
442 0 m 1
 355 0 l 1
 355 271 l 2
 355 352 316 387 268 387 c 0
 189 387 146 328 146 287 c 2
 146 0 l 1
 59 0 l 1
 59 628 l 1
 146 628 l 1
 146 381 l 1
 174 420 216 445 283 445 c 0
 396 445 442 389 442 275 c 2
 442 0 l 1
EndSplineSet
EndChar

StartChar: i
Encoding: 75 105 139
Width: 264
GlyphClass: 2
Flags: W
HStem: 0 21G<114 200> 415 20G<114 200> 541 87<111 204>
VStem: 114 86<0 435 541 628>
LayerCount: 2
Fore
SplineSet
114 0 m 9
 114 435 l 1
 200 435 l 1
 200 0 l 17
 114 0 l 9
204 628 m 1
 204 541 l 1
 111 541 l 1
 111 628 l 1
 204 628 l 1
EndSplineSet
EndChar

StartChar: j
Encoding: 76 106 140
Width: 261
GlyphClass: 2
Flags: W
HStem: -184 78<25.5705 109.809> 415 20G<114 200> 541 87<111 204>
VStem: 114 86<-104.644 435 541 628>
LayerCount: 2
Fore
SplineSet
200 -70 m 2
 200 -128 172 -184 92 -184 c 0
 56 -184 6 -168 -24 -139 c 1
 -8 -120 9 -102 25 -84 c 1
 37 -98 60 -111 84 -106 c 1
 109 -105 114 -84 114 -44 c 2
 114 435 l 1
 200 435 l 1
 200 -70 l 2
204 628 m 1
 204 541 l 1
 111 541 l 1
 111 628 l 1
 204 628 l 1
EndSplineSet
EndChar

StartChar: k
Encoding: 77 107 141
Width: 443
GlyphClass: 2
Flags: W
HStem: 0 21G<59 146 299.391 426> 415 20G<288.222 412> 608 20G<59 146>
VStem: 59 87<0 230 255 628> 306 106<329 435> 314 112<0 112>
DStem2: 146 255 242 246 0.668747 0.74349<57.5083 240.828> 242 246 146 230 0.598958 -0.800781<0 240.117>
LayerCount: 2
Fore
SplineSet
426 0 m 1xf4
 314 0 l 1xf4
 146 230 l 1
 146 0 l 1
 59 0 l 1
 59 628 l 1
 146 628 l 1
 146 255 l 1
 306 435 l 1
 412 435 l 1xf8
 242 246 l 1
 426 0 l 1xf4
EndSplineSet
EndChar

StartChar: l
Encoding: 78 108 142
Width: 205
GlyphClass: 2
Flags: W
HStem: 0 21G<59 146> 608 20G<59 146>
VStem: 59 87<0 628>
LayerCount: 2
Fore
SplineSet
146 0 m 1
 59 0 l 1
 59 628 l 1
 146 628 l 1
 146 0 l 1
EndSplineSet
EndChar

StartChar: m
Encoding: 79 109 143
Width: 782
GlyphClass: 2
Flags: W
HStem: 0 21G<59 146 349 436 636 722> 387 58<197.698 312.017 483.962 603.912> 415 20G<59 146>
VStem: 59 87<0 335.628 375 435> 349 87<0 337.127> 636 86<0 353.039>
LayerCount: 2
Fore
SplineSet
722 0 m 1xdc
 636 0 l 1
 636 280 l 2
 636 343 605 387 543 387 c 0
 482 387 436 325 436 276 c 2
 436 0 l 1
 349 0 l 1
 349 280 l 2
 349 335 313 387 258 387 c 0xdc
 191 387 146 322 146 275 c 2
 146 0 l 1
 59 0 l 1
 59 435 l 1
 146 435 l 1xbc
 146 375 l 1
 178 419 219 445 277 445 c 0
 357 445 391 422 421 368 c 1
 461 425 506 445 563 445 c 0
 696 445 722 357 722 282 c 2
 722 0 l 1xdc
EndSplineSet
EndChar

StartChar: n
Encoding: 80 110 144
Width: 503
GlyphClass: 2
Flags: W
HStem: 0 21G<57 144 354 440> 390 55<189.109 314.987> 415 20G<57 144>
VStem: 57 87<0 344.677 379 435> 354 86<0 350.289>
LayerCount: 2
Fore
SplineSet
440 0 m 1xd8
 354 0 l 1
 354 283 l 2
 354 345 310 390 253 390 c 0xd8
 192 390 144 342 144 272 c 2
 144 0 l 1
 57 0 l 1
 57 435 l 1
 144 435 l 1xb8
 144 379 l 1
 171 419 207 445 278 445 c 0
 396 445 440 380 440 287 c 2
 440 0 l 1xd8
EndSplineSet
EndChar

StartChar: o
Encoding: 81 111 145
Width: 517
GlyphClass: 2
Flags: W
HStem: -12 60<193.109 325.25> 387 58<193.295 324.053>
VStem: 43 87<118.702 315.822> 386 89<116.64 317.263>
LayerCount: 2
Fore
SplineSet
386 217 m 0
 386 303 346 387 259 387 c 0
 170 387 130 302 130 217 c 0
 130 132 170 48 259 48 c 0
 346 48 386 131 386 217 c 0
475 217 m 0
 475 66 379 -12 259 -12 c 0
 137 -12 43 67 43 217 c 0
 43 369 138 445 259 445 c 0
 380 445 475 367 475 217 c 0
EndSplineSet
EndChar

StartChar: p
Encoding: 82 112 146
Width: 523
GlyphClass: 2
Flags: W
HStem: -173 21G<59 146> -14 62<200.282 333.941> 387 58<202.093 333.559> 415 20G<59 146>
VStem: 59 87<-173 44 109.818 320.792 378 435> 391 90<114.643 322.049>
LayerCount: 2
Fore
SplineSet
391 218 m 0xec
 391 303 355 387 268 387 c 0
 179 387 146 300 146 218 c 0
 146 124 180 48 268 48 c 0
 356 48 391 133 391 218 c 0xec
481 218 m 0
 481 86 422 -14 280 -14 c 0
 223 -14 184 13 146 44 c 1
 146 -173 l 1
 59 -173 l 1
 59 435 l 1
 146 435 l 1xdc
 146 378 l 1
 186 418 225 445 279 445 c 0
 423 445 481 345 481 218 c 0
EndSplineSet
EndChar

StartChar: q
Encoding: 83 113 147
Width: 523
GlyphClass: 2
Flags: W
HStem: -173 21G<376 463> -14 62<191.216 323.548> 387 58<191.377 320.54> 415 20G<376 463>
VStem: 43 89<114.436 322.062> 376 87<-173 44 106.702 324.396 378 435>
LayerCount: 2
Fore
SplineSet
378 218 m 0xec
 378 301 343 387 256 387 c 0
 166 387 132 302 132 218 c 0
 132 132 166 48 257 48 c 0
 342 48 378 124 378 218 c 0xec
463 -173 m 1
 376 -173 l 1
 376 44 l 1
 338 13 300 -14 241 -14 c 0
 100 -14 43 86 43 218 c 0
 43 346 100 445 242 445 c 0xec
 300 445 339 418 376 378 c 1
 376 435 l 1
 463 435 l 1xdc
 463 -173 l 1
EndSplineSet
EndChar

StartChar: r
Encoding: 84 114 148
Width: 319
GlyphClass: 2
Flags: W
HStem: 0 21G<59 146> 361 76<200.66 304>
VStem: 59 87<0 311 373 435>
LayerCount: 2
Fore
SplineSet
304 361 m 1
 194 361 146 315 146 239 c 2
 146 0 l 1
 59 0 l 1
 59 435 l 1
 146 435 l 1
 146 373 l 1
 170 416 197 437 304 437 c 1
 304 361 l 1
EndSplineSet
EndChar

StartChar: s
Encoding: 85 115 149
Width: 440
GlyphClass: 2
Flags: W
HStem: -12 60<150.334 284.989> 387 58<157.751 282.149>
VStem: 43 87<69.5773 128> 53 86<285.845 367.417> 299 86<315 368.769> 310 88<72.3638 159.57>
LayerCount: 2
Fore
SplineSet
398 129 m 0xd4
 398 23 301 -12 207 -12 c 0
 115 -12 43 25 43 128 c 1
 130 128 l 1
 131 68 166 48 217 48 c 0
 262 48 310 71 310 121 c 0xe4
 310 227 53 142 53 324 c 0
 53 386 98 445 219 445 c 0
 316 445 385 418 385 315 c 1
 299 315 l 1xd8
 298 350 286 387 216 387 c 0
 174 387 139 361 139 325 c 0
 139 222 398 299 398 129 c 0xd4
EndSplineSet
EndChar

StartChar: t
Encoding: 86 116 150
Width: 317
GlyphClass: 2
Flags: W
HStem: -12 64<200.959 290.132> 375 60<24 106 192 289>
VStem: 106 86<59.9452 375 435 517>
LayerCount: 2
Fore
SplineSet
291 1 m 1
 268 -8 245 -12 222 -12 c 0
 146 -12 106 20 106 112 c 2
 106 375 l 1
 24 375 l 1
 24 435 l 1
 106 435 l 1
 106 517 l 1
 192 556 l 1
 192 435 l 1
 289 435 l 1
 289 375 l 1
 192 375 l 1
 192 119 l 2
 192 67 211 52 243 52 c 0
 260 52 277 55 291 60 c 1
 291 1 l 1
EndSplineSet
EndChar

StartChar: u
Encoding: 87 117 151
Width: 502
GlyphClass: 2
Flags: W
HStem: -11 56<184.475 311.314> 0 21G<355 442> 415 20G<59 146 355 442>
VStem: 59 87<83.8645 435> 355 87<0 57 88.3954 435>
LayerCount: 2
Fore
SplineSet
442 0 m 1x78
 355 0 l 1x78
 355 57 l 1
 332 19 297 -9 234 -11 c 0
 120 -16 59 40 59 145 c 2
 59 435 l 1
 146 435 l 1
 146 152 l 2
 146 88 190 45 245 45 c 0xb8
 307 45 355 89 355 162 c 2
 355 435 l 1
 442 435 l 1
 442 0 l 1x78
EndSplineSet
EndChar

StartChar: v
Encoding: 88 118 152
Width: 467
GlyphClass: 2
Flags: W
HStem: 0 21G<180.862 286.092> 415 20G<12 117.628 342 454>
DStem2: 110 435 12 435 0.376891 -0.926258<0 356.309> 237 102 278 0 0.375062 0.927<0 355.949>
LayerCount: 2
Fore
SplineSet
454 435 m 1
 278 0 l 1
 189 0 l 1
 12 435 l 1
 110 435 l 1
 237 102 l 1
 279 213 321 324 363 435 c 1
 454 435 l 1
EndSplineSet
EndChar

StartChar: w
Encoding: 89 119 153
Width: 715
GlyphClass: 2
Flags: W
HStem: 0 21G<132 252.418 462.639 565.575> 415 20G<12 109.939 296.879 418.121 606.939 702>
VStem: 12 92<343 435> 613 89<346 435>
DStem2: 104 435 12 435 0.314263 -0.949336<0 344.079> 202 105 246 0 0.305568 0.95217<0 279.998> 412 435 358 349 0.303091 -0.952962<65.5878 345.09> 513 105 559 0 0.312294 0.949985<0 344.725>
LayerCount: 2
Fore
SplineSet
702 435 m 1
 559 0 l 1
 469 0 l 1
 358 349 l 1
 246 0 l 1
 156 0 l 1
 108 145 60 290 12 435 c 1
 104 435 l 1
 202 105 l 1
 303 435 l 1
 412 435 l 1
 513 105 l 1
 613 435 l 1
 702 435 l 1
EndSplineSet
EndChar

StartChar: x
Encoding: 90 120 154
Width: 476
GlyphClass: 2
Flags: W
HStem: 0 21G<16 133.5 337.595 460> 415 20G<29 150.305 334.225 447>
VStem: 16 98<0 98> 29 107<328 435> 348 99<336 435> 352 108<0 108>
DStem2: 16 0 114 0 0.606704 0.794928<59.457 59.457 364.088 547.219> 136 435 29 435 0.597342 -0.801987<0 185.613 270.878 477.89>
LayerCount: 2
Fore
SplineSet
460 0 m 1xc4
 352 0 l 1
 231 168 l 1
 192 112 153 56 114 0 c 1
 16 0 l 1xe4
 185 227 l 1
 29 435 l 1
 136 435 l 1
 244 284 l 1
 348 435 l 1
 447 435 l 1xd8
 291 227 l 1
 460 0 l 1xc4
EndSplineSet
EndChar

StartChar: y
Encoding: 91 121 155
Width: 467
GlyphClass: 2
Flags: W
HStem: -178 75<94.1722 163.347> 415 20G<12 120.088 353.476 454>
DStem2: 112 435 12 435 0.389571 -0.920996<0 344.053> 196 0 249 -98 0.358979 0.933346<-117.194 0 124.422 465.237>
LayerCount: 2
Fore
SplineSet
454 435 m 1
 249 -98 l 2
 232 -144 201 -178 138 -178 c 0
 83 -178 41 -147 17 -99 c 1
 81 -61 l 1
 94 -87 110 -103 136 -103 c 0
 163 -103 175 -60 196 0 c 1
 12 435 l 1
 112 435 l 1
 241 116 l 1
 361 435 l 1
 454 435 l 1
EndSplineSet
EndChar

StartChar: z
Encoding: 92 122 156
Width: 414
GlyphClass: 2
Flags: W
HStem: 0 63<136 371> 370 65<57 272>
VStem: 43 328<0 63>
DStem2: 43 75 136 63 0.618525 0.785765<48.0936 373.443>
LayerCount: 2
Fore
SplineSet
371 0 m 1
 43 0 l 1
 43 75 l 1
 272 370 l 1
 57 370 l 1
 57 435 l 1
 369 435 l 1
 369 359 l 1
 136 63 l 1
 371 63 l 1
 371 0 l 1
EndSplineSet
EndChar

StartChar: braceleft
Encoding: 93 123 157
Width: 403
GlyphClass: 2
Flags: W
HStem: -424 61<300.906 350> 803 60<300.906 350>
VStem: 68 66<200.231 239.223> 173 62<-156.449 114.851 324.436 596.124>
LayerCount: 2
Fore
SplineSet
350 -424 m 1
 184 -424 173 -215 173 49 c 0
 173 144 68 170 68 220 c 0
 68 268 173 296 173 390 c 0
 173 654 184 863 350 863 c 1
 350 803 l 1
 250 803 235 650 235 375 c 0
 235 268 134 234 134 220 c 0
 134 205 235 172 235 64 c 0
 235 -210 250 -363 350 -363 c 1
 350 -424 l 1
EndSplineSet
EndChar

StartChar: bar
Encoding: 94 124 158
Width: 308
GlyphClass: 2
Flags: W
VStem: 125 58<-225 692>
LayerCount: 2
Fore
SplineSet
183 -225 m 1
 125 -225 l 1
 125 692 l 1
 183 692 l 1
 183 -225 l 1
EndSplineSet
EndChar

StartChar: braceright
Encoding: 95 125 159
Width: 403
GlyphClass: 2
Flags: W
HStem: -424 61<54 103.094> 803 60<54 103.094>
VStem: 168 63<-165.505 114.851 324.436 596.124> 269 66<200.231 239.223>
LayerCount: 2
Fore
SplineSet
335 220 m 0
 335 170 231 144 231 49 c 0
 231 -215 220 -424 54 -424 c 1
 54 -363 l 1
 153 -363 168 -210 168 64 c 0
 168 172 269 205 269 220 c 0
 269 234 168 268 168 375 c 0
 168 650 153 803 54 803 c 1
 54 863 l 1
 220 863 231 654 231 390 c 0
 231 296 335 268 335 220 c 0
EndSplineSet
EndChar

StartChar: asciitilde
Encoding: 96 126 160
Width: 552
GlyphClass: 2
Flags: W
HStem: 171 52<292.959 429.242> 231 52<120.743 248.424>
LayerCount: 2
Fore
SplineSet
498 231 m 1
 453 188 406 171 363 171 c 0
 283 171 235 231 190 231 c 0
 160 231 134 224 72 174 c 1
 54 221 l 1
 103 266 143 283 190 283 c 0
 263 283 294 223 363 223 c 0
 395 223 422 236 465 270 c 1
 475 257 487 244 498 231 c 1
EndSplineSet
EndChar

StartChar: uni0EDF
Encoding: 162 3807 161
Width: 684
GlyphClass: 1
Flags: W
HStem: 0 64<172.198 412.179> 246 62<428 460> 369 60<134.564 199.432> 376 62<134 168.483> 379 52<325.331 382.359> 496 63<136.035 199.969>
VStem: 50 84<100.439 186.581 336.615 376 430.529 493.777> 202 68<431.324 493.997> 262 62<322.984 377.639> 383 59<312.352 377.592> 460 88<109.386 246 334 557.365> 572 81<336.279 435.699>
AnchorPoint: "cabove" 340 600 basechar 0
AnchorPoint: "udia" 300 600 basechar 0
AnchorPoint: "cbelow" 440 0 basechar 0
AnchorPoint: "ldia" 440 0 basechar 0
LayerCount: 2
Fore
SplineSet
134 438 m 1xd770
 145 433 158 429 169 429 c 0xe770
 182 429 202 439 202 464 c 0
 202 486 185 496 169 496 c 0
 145 496 134 479 134 463 c 2
 134 438 l 1xd770
138 144 m 0
 138 94 173 64 309 64 c 0
 438 64 460 124 460 181 c 2
 460 246 l 1
 459 246 457 246 456 246 c 0
 333 246 262 285 262 350 c 0
 262 408 309 431 353 431 c 0xcef0
 404 431 442 406 442 351 c 0
 442 327 429 309 428 309 c 1
 437 309 445 308 456 308 c 0
 457 308 459 308 460 308 c 1
 460 525 l 2
 460 557 479 559 504 559 c 0
 533 559 548 558 548 525 c 2
 548 334 l 1
 565 348 572 368 572 391 c 0
 572 428 589 439 612 439 c 0
 635 439 653 433 653 383 c 0
 653 341 624 284 548 259 c 1
 548 179 l 2
 548 60 461 0 310 0 c 0
 171 0 50 27 50 145 c 0
 50 146 l 0
 50 216 112 256 175 256 c 1
 99 281 50 330 50 426 c 0
 50 503 87 559 173 559 c 0
 226 559 270 522 270 467 c 0
 270 419 236 369 175 369 c 0xe770
 161 369 147 372 134 376 c 1xd770
 134 306 254 319 254 252 c 0
 254 183 138 232 138 144 c 0
370 312 m 1
 377 323 383 336 383 349 c 0
 383 370 374 379 353 379 c 0
 333 379 324 369 324 351 c 0
 324 335 339 321 370 312 c 1
EndSplineSet
EndChar

StartChar: uni0EDE
Encoding: 163 3806 162
Width: 768
GlyphClass: 1
Flags: W
HStem: 0 62<117.388 178.241> 129 61<117.964 181.46> 246 62<500 532> 369 61<117.242 181.461> 379 52<397.331 454.359> 419 20G<672.5 695.5> 498 61<117.648 178.245 350.831 492.563>
VStem: 49 66<63.457 125.817 432.326 495.477> 182 88<65.0529 127.636 184 374 431.798 440.54> 334 62<322.984 377.639> 455 59<312.352 377.592> 532 88<1.40991 246 334 458.125> 644 81<336.279 435.699>
AnchorPoint: "cabove" 390 600 basechar 0
AnchorPoint: "udia" 300 600 basechar 0
AnchorPoint: "cbelow" 480 0 basechar 0
AnchorPoint: "ldia" 490 0 basechar 0
LayerCount: 2
Fore
SplineSet
182 121 m 1xe3f8
 171 125 159 129 148 129 c 0
 135 129 115 119 115 94 c 0
 115 72 131 62 147 62 c 0
 172 62 182 81 182 93 c 2
 182 121 l 1xe3f8
182 442 m 1
 182 457 l 2
 182 478 173 498 148 498 c 0
 126 498 115 481 115 464 c 0
 115 446 127 430 149 430 c 0xf3f8
 159 430 170 435 182 442 c 1
257 498 m 1
 301 529 356 559 426 559 c 0
 555 559 620 498 620 337 c 2
 620 334 l 1
 637 348 644 368 644 391 c 0
 644 428 661 439 684 439 c 0xe7f8
 707 439 725 433 725 383 c 0
 725 341 696 284 620 259 c 1
 620 33 l 2
 620 2 605 0 577 0 c 0
 552 0 532 0 532 33 c 2
 532 246 l 1
 531 246 529 246 528 246 c 0
 405 246 334 285 334 350 c 0
 334 408 381 431 425 431 c 0xebf8
 476 431 514 406 514 351 c 0
 514 327 501 309 500 309 c 1
 509 309 517 308 528 308 c 0
 529 308 531 308 532 308 c 1
 532 375 l 2
 532 438 513 494 425 494 c 0
 363 494 316 458 270 425 c 1
 270 179 l 2
 270 88 257 0 148 0 c 0
 93 0 49 38 49 92 c 0
 49 144 85 190 145 190 c 0
 157 190 170 188 182 184 c 1
 182 374 l 1
 171 371 159 369 147 369 c 0
 92 369 49 407 49 466 c 0
 49 520 91 559 149 559 c 0
 198 559 238 540 257 498 c 1
442 312 m 1
 449 323 455 336 455 349 c 0
 455 370 446 379 425 379 c 0xebf8
 405 379 396 369 396 351 c 0
 396 335 411 321 442 312 c 1
EndSplineSet
EndChar

